<?xml version="1.0" encoding="UTF-8"?>
<svg id="Calque_1" data-name="Calque 1" xmlns="http://www.w3.org/2000/svg" viewBox="0 0 550 550">
  <defs>
    <style>
      .cls-1 {
        fill: #a0c9f0;
      }

      .cls-2 {
        fill: #dfecfa;
      }

      .cls-3 {
        fill: #2e4c9a;
      }

      .cls-4 {
        fill: #518de0;
      }
    </style>
  </defs>
  <rect class="cls-2" x="25" y="25" width="500" height="500" rx="64" ry="64"/>
  <g>
    <path class="cls-4" d="m157.96,289.19c-15.92,0-30.88-6.2-42.13-17.45l-23.41-23.41c-23.23-23.23-23.23-61.03,0-84.26l23.41-23.41c11.25-11.25,26.22-17.45,42.13-17.45s30.88,6.2,42.13,17.45l87.4,87.4c-4.09-.7-8.27-1.06-12.5-1.06-19.45,0-37.74,7.57-51.49,21.33l-23.41,23.41c-11.25,11.25-26.22,17.45-42.13,17.45Z"/>
    <path class="cls-3" d="m392.01,289.19c-15.91,0-30.88-6.2-42.13-17.45l-65.53-65.53,65.53-65.54c11.25-11.25,26.22-17.45,42.13-17.45s30.88,6.2,42.13,17.45l23.4,23.41c11.25,11.25,17.45,26.22,17.45,42.13s-6.2,30.88-17.45,42.13l-23.4,23.41c-11.25,11.25-26.22,17.45-42.13,17.45Z"/>
    <path class="cls-1" d="m274.99,426.78c-2.65,0-5.15-1.03-7.02-2.91l-58.51-58.51c-11.25-11.25-17.45-26.22-17.45-42.13s6.2-30.88,17.45-42.13l23.41-23.41c11.25-11.25,26.22-17.45,42.13-17.45s30.88,6.2,42.13,17.45l23.4,23.41c13.75,13.75,32.04,21.33,51.49,21.33,4.23,0,8.41-.36,12.5-1.06l-122.51,122.51c-1.88,1.87-4.37,2.91-7.02,2.91Z"/>
  </g>
</svg>