<svg width="48" height="48" viewBox="0 0 48 48" fill="none" xmlns="http://www.w3.org/2000/svg">
<rect width="48" height="48" rx="24" fill="#D5D7E2"/>
<path fill-rule="evenodd" clip-rule="evenodd" d="M15.6667 16C14.1939 16 13 17.1939 13 18.6666V29.3333C13 30.8061 14.1939 32 15.6667 32H31.6667C33.1394 32 34.3333 30.8061 34.3333 29.3333V18.6666C34.3333 17.1939 33.1394 16 31.6667 16H15.6667ZM23.6667 19.3333C23.6667 18.9651 23.3682 18.6666 23 18.6666C22.6318 18.6666 22.3333 18.9651 22.3333 19.3333V28.6666C22.3333 29.0348 22.6318 29.3333 23 29.3333C23.3682 29.3333 23.6667 29.0348 23.6667 28.6666V19.3333ZM28.3333 20.504C30.3088 18.6098 34.7267 22.3594 28.3333 26.6666C21.94 22.3594 26.3578 18.6098 28.3333 20.504ZM15.6667 20.6666C15.6667 20.2984 15.9651 20 16.3333 20H20.3333C20.7015 20 21 20.2984 21 20.6666C21 21.0348 20.7015 21.3333 20.3333 21.3333H16.3333C15.9651 21.3333 15.6667 21.0348 15.6667 20.6666ZM15.6667 23.3333C15.6667 22.9651 15.9651 22.6666 16.3333 22.6666H20.3333C20.7015 22.6666 21 22.9651 21 23.3333C21 23.7015 20.7015 24 20.3333 24H16.3333C15.9651 24 15.6667 23.7015 15.6667 23.3333ZM15.6667 26C15.6667 25.6318 15.9651 25.3333 16.3333 25.3333H20.3333C20.7015 25.3333 21 25.6318 21 26C21 26.3682 20.7015 26.6666 20.3333 26.6666H16.3333C15.9651 26.6666 15.6667 26.3682 15.6667 26Z" fill="#424662"/>
</svg>
