<svg width="210" height="251" viewBox="0 0 210 251" fill="none" xmlns="http://www.w3.org/2000/svg">
	<g clip-path="url(#clip0_120_226)">
		<path
			d="M0.799835 105.019C0.799835 162.784 47.6264 209.619 105.4 209.619C163.173 209.619 210 162.784 210 105.019C210 47.254 163.173 0.418945 105.4 0.418945C47.6264 0.418945 0.799835 47.2455 0.799835 105.019Z"
			fill="#5CB030"
		/>
		<path
			d="M71.8015 178.855L70.3629 248.963M139.032 180.294L137.594 250.402"
			stroke="black"
			stroke-width="2.86"
			stroke-miterlimit="10"
		/>
		<path
			d="M112.473 54.6768C112.456 57.5284 114.755 59.8608 117.606 59.8778C120.458 59.8948 122.79 57.5965 122.808 54.7449C122.825 51.8932 120.526 49.5608 117.675 49.5438C114.823 49.5268 112.491 51.8251 112.473 54.6768Z"
			fill="black"
		/>
		<path
			d="M72.6781 54.4128C72.6611 57.2645 74.9594 59.5969 77.8111 59.6139C80.6627 59.6309 82.9951 57.3326 83.0121 54.4809C83.0291 51.6293 80.7308 49.2969 77.8791 49.2799C75.0275 49.2629 72.6951 51.5612 72.6781 54.4128Z"
			fill="black"
		/>
		<path
			d="M70.2694 76.4089C82.8848 76.4089 93.1422 66.1515 93.1422 53.5362C93.1422 40.9208 82.8763 30.6634 70.2694 30.6634C57.6626 30.6634 47.3967 40.9208 47.3967 53.5362C47.3967 66.1515 57.6541 76.4089 70.2694 76.4089ZM123.072 77.175C135.687 77.175 145.944 66.9091 145.944 54.3023C145.944 41.6955 135.679 31.4295 123.072 31.4295C110.465 31.4295 100.199 41.6869 100.199 54.3023C100.199 66.9176 110.465 77.175 123.072 77.175ZM35.5389 30.7145L36.8924 29.676L47.7286 43.764C51.5166 35.0643 60.1908 28.9609 70.2694 28.9609C82.4166 28.9609 92.5293 37.8223 94.4956 49.4247L98.8965 49.9184C100.974 38.4522 111.018 29.7271 123.072 29.7271C135.125 29.7271 145.315 38.5714 147.289 50.1568L172.648 34.0684L173.559 35.507L147.536 52.021C147.604 52.7701 147.647 53.5362 147.647 54.3023C147.647 67.854 136.623 78.8775 123.072 78.8775C109.52 78.8775 98.4965 67.854 98.4965 54.3023C98.4965 53.3915 98.5475 52.4891 98.6497 51.6039L94.7255 51.1612C94.8021 51.9444 94.8447 52.736 94.8447 53.5362C94.8447 67.0879 83.8211 78.1114 70.2694 78.1114C56.7177 78.1114 45.6942 67.0879 45.6942 53.5362C45.6942 50.7696 46.1624 48.1053 47.0136 45.6197L35.5474 30.7145H35.5389Z"
			fill="white"
		/>
		<path
			d="M47.6007 168.538L48.4009 167.057C19.4162 151.454 26.5666 98.8049 26.6432 98.2772L24.9748 98.0388C24.9578 98.175 23.068 111.718 24.8727 127.049C27.2817 147.487 35.1471 161.831 47.6007 168.538Z"
			fill="black"
		/>
		<path
			d="M48.4603 177.127L50.1372 176.949C49.7882 173.731 49.32 170.862 48.8178 167.959L47.1579 168.24C47.6516 171.109 48.1198 173.952 48.4603 177.127Z"
			fill="black"
		/>
		<path
			d="M54.6828 174.94L55.8149 173.697C54.7254 172.709 53.6443 171.696 52.5547 170.692C51.2353 169.466 49.9074 168.232 48.5539 167.015L47.4217 168.266C48.7667 169.483 50.0861 170.709 51.4055 171.935C52.4951 172.948 53.5847 173.961 54.6743 174.948"
			fill="black"
		/>
		<path
			d="M58.0964 168.921L58.2837 167.244C56.6238 167.057 54.6829 166.955 52.8102 166.853C50.9801 166.759 49.0903 166.649 47.5155 166.478L47.3283 168.155C48.9541 168.334 50.8694 168.436 52.7166 168.538C54.5638 168.64 56.4791 168.743 58.0964 168.921Z"
			fill="black"
		/>
		<path
			d="M131.439 46.0539C131.439 46.0539 125.48 36.6903 116.542 43.0745"
			stroke="black"
			stroke-width="3"
			stroke-miterlimit="10"
			stroke-linecap="round"
		/>
		<path
			d="M83.3442 47.3307C83.3442 47.3307 77.3856 46.4795 72.7038 47.7563"
			stroke="black"
			stroke-width="3"
			stroke-miterlimit="10"
			stroke-linecap="round"
		/>
		<path
			d="M104.548 80.2906C104.548 80.2906 99.9431 73.2935 90.6136 78.0434"
			stroke="black"
			stroke-width="2.86"
			stroke-linecap="round"
			stroke-linejoin="round"
		/>
		<path
			d="M107.604 88.6156C106.753 86.0619 109.307 83.9679 108.456 80.1033M98.6919 81.6951C101.28 83.6785 103.893 85.2022 106.523 87.2366M106.753 88.6156C103.493 87.2877 105.051 87.7644 100.795 85.2107M106.413 87.6793C127.557 114.221 178.972 97.145 178.972 97.145"
			stroke="black"
			stroke-width="2.86"
			stroke-linecap="round"
			stroke-linejoin="round"
		/>
	</g>
	<defs>
		<clipPath id="clip0_120_226">
			<rect width="209.2" height="250" fill="white" transform="matrix(-1 0 0 1 210 0.418945)" />
		</clipPath>
	</defs>
</svg>
