<svg width="232" height="326" viewBox="0 0 232 326" fill="none" xmlns="http://www.w3.org/2000/svg">
<g clip-path="url(#clip0_142_66)">
<path d="M198.862 248.386L201.28 256.466L198.862 248.386Z" stroke="#DB7127" stroke-miterlimit="10"/>
<path d="M140.606 295.749C141.256 297.838 143.198 299.433 145.607 299.433H207.118C209.527 299.433 211.469 297.838 212.119 295.749" stroke="#DB7127" stroke-miterlimit="10"/>
<path d="M212.344 294.562C212.318 294.969 212.24 295.368 212.119 295.741C212.24 295.359 212.31 294.961 212.344 294.562Z" fill="#EE8222" stroke="#DB7127" stroke-miterlimit="10"/>
<path d="M212.344 294.562C212.362 294.362 212.362 294.154 212.344 293.946C212.353 294.154 212.344 294.362 212.344 294.562Z" fill="#EE8222" stroke="#DB7127" stroke-miterlimit="10"/>
<path d="M183.821 190.513V205.698V190.513Z" stroke="#DB7127" stroke-miterlimit="10"/>
<path d="M146.223 273.899H206.511L212.136 292.698L201.285 256.452H151.449L153.867 248.375H198.867L185.996 205.386H166.729L171.08 190.842L140.589 292.707C140.468 293.123 140.39 293.548 140.373 293.964C140.39 293.548 140.468 293.132 140.589 292.707L146.214 273.908L146.223 273.899ZM161.512 222.833H191.231L193.649 230.91H159.094L161.512 222.833Z" fill="#E5E5E5"/>
<path d="M140.589 292.707L171.08 190.842L166.729 205.386H185.996L198.867 248.375H153.867L151.449 256.452H201.285L212.136 292.698L206.511 273.899H146.223L146.214 273.908L140.589 292.707ZM140.589 292.707C140.468 293.123 140.39 293.548 140.373 293.964C140.39 293.548 140.468 293.132 140.589 292.707ZM161.512 222.833H191.231L193.649 230.91H159.094L161.512 222.833Z" stroke="#DB7127" stroke-miterlimit="10"/>
<path d="M212.284 293.322C212.318 293.53 212.344 293.738 212.353 293.946" stroke="#DB7127" stroke-miterlimit="10"/>
<path d="M140.606 295.749C140.433 295.177 140.346 294.579 140.381 293.955C140.355 294.57 140.433 295.177 140.606 295.749Z" stroke="#DB7127" stroke-miterlimit="10"/>
<path d="M151.449 256.444H201.285L198.867 248.366H153.867L151.449 256.444Z" fill="#EE8222" stroke="#DB7127" stroke-miterlimit="10"/>
<path d="M191.223 222.833H161.512L159.094 230.91H193.641L191.223 222.833Z" fill="#EE8222" stroke="#DB7127" stroke-miterlimit="10"/>
<path d="M212.284 293.322C212.249 293.114 212.197 292.906 212.137 292.69L206.512 273.891H146.223L140.598 292.69C140.477 293.106 140.399 293.53 140.381 293.946C140.355 294.562 140.433 295.169 140.607 295.741C141.257 297.829 143.198 299.424 145.608 299.424H207.118C209.528 299.424 211.469 297.829 212.119 295.741C212.241 295.359 212.31 294.961 212.345 294.562C212.362 294.363 212.362 294.154 212.345 293.946C212.336 293.738 212.31 293.53 212.275 293.322H212.284Z" fill="#EE8222" stroke="#DB7127" stroke-miterlimit="10"/>
<path d="M171.089 190.834L166.729 205.377H185.997L181.646 190.834H171.089Z" fill="#EE8222" stroke="#DB7127" stroke-miterlimit="10"/>
<path d="M220.223 291.45H132.511C130.118 291.45 128.178 293.391 128.178 295.784V295.845C128.178 298.238 130.118 300.178 132.511 300.178H220.223C222.616 300.178 224.556 298.238 224.556 295.845V295.784C224.556 293.391 222.616 291.45 220.223 291.45Z" fill="#333333" stroke="#212121" stroke-miterlimit="10"/>
<path d="M231.906 175.623C231.906 234.438 184.228 282.125 125.405 282.125C66.5807 282.125 18.9028 234.438 18.9028 175.623C18.9028 116.808 66.5807 69.1212 125.405 69.1212C184.228 69.1212 231.906 116.799 231.906 175.623Z" fill="#5CB030"/>
<path d="M158.747 249.068L160.212 320.451M90.2939 250.533L91.7587 321.915" stroke="#010101" stroke-width="2.86" stroke-miterlimit="10"/>
<path d="M117.335 122.632C117.353 125.536 115.013 127.91 112.109 127.928C109.206 127.945 106.831 125.605 106.814 122.701C106.796 119.798 109.136 117.423 112.04 117.406C114.943 117.388 117.318 119.729 117.335 122.632Z" fill="#010101"/>
<path d="M157.855 122.363C157.872 125.267 155.532 127.642 152.628 127.659C149.725 127.676 147.35 125.336 147.333 122.433C147.315 119.529 149.655 117.154 152.559 117.137C155.462 117.12 157.837 119.46 157.855 122.363Z" fill="#010101"/>
<path d="M132.685 144.846C132.382 144.846 132.087 144.742 131.844 144.517C131.342 144.057 131.307 143.268 131.766 142.766C134.445 139.845 137.955 139.117 142.202 140.616C142.852 140.842 143.19 141.552 142.964 142.202C142.739 142.844 142.028 143.19 141.378 142.956C138.024 141.778 135.623 142.228 133.604 144.439C133.361 144.707 133.023 144.837 132.685 144.837" fill="#1D1D1B"/>
<path d="M160.307 144.759C147.462 144.759 137.019 134.315 137.019 121.471C137.019 108.626 147.471 98.182 160.307 98.182C173.143 98.182 183.596 108.626 183.596 121.471C183.596 134.315 173.152 144.759 160.307 144.759ZM106.545 145.539C93.7002 145.539 83.2563 135.087 83.2563 122.251C83.2563 109.415 93.7089 98.9621 106.545 98.9621C119.381 98.9621 129.833 109.406 129.833 122.251C129.833 135.095 119.381 145.539 106.545 145.539ZM195.669 98.234L194.291 97.1766L183.258 111.521C179.401 102.663 170.569 96.4486 160.307 96.4486C147.939 96.4486 137.643 105.471 135.64 117.284L131.16 117.787C129.045 106.112 118.818 97.2287 106.545 97.2287C94.2722 97.2287 83.8977 106.234 81.8869 118.03L56.0675 101.649L55.1401 103.114L81.6356 119.928C81.5662 120.691 81.5229 121.471 81.5229 122.251C81.5229 136.049 92.7468 147.273 106.545 147.273C120.343 147.273 131.567 136.049 131.567 122.251C131.567 121.323 131.515 120.405 131.411 119.503L135.406 119.052C135.328 119.85 135.285 120.656 135.285 121.471C135.285 135.269 146.509 146.493 160.307 146.493C174.105 146.493 185.329 135.269 185.329 121.471C185.329 118.654 184.852 115.941 183.986 113.41L195.66 98.234H195.669Z" fill="white"/>
<path d="M155.792 226.274L165.681 231.812L154.578 233.797M158.322 239.994L165.689 231.812C230.71 226.308 207.309 168.23 207.309 168.23" stroke="#010101" stroke-width="2.86" stroke-linecap="round" stroke-linejoin="round"/>
<path d="M101.041 234.655L89.9731 232.479M89.9731 232.479L99.9577 227.106M89.9731 232.479C25.0564 225.866 49.437 168.195 49.437 168.195M89.9731 232.479L97.1929 240.791" stroke="#010101" stroke-width="2.86" stroke-linecap="round" stroke-linejoin="round"/>
<path d="M179.506 52.5834L179.824 59.5792L179.506 52.5834Z" stroke="#DB7127" stroke-miterlimit="10"/>
<path d="M123.012 78.993C123.116 80.8045 124.356 82.4859 126.297 82.9713L175.856 95.3826C177.797 95.8679 179.687 94.9752 180.631 93.4238" stroke="#DB7127" stroke-miterlimit="10"/>
<path d="M181.047 92.5138C180.943 92.8345 180.805 93.1378 180.631 93.4238" stroke="#DB7127" stroke-miterlimit="10"/>
<path d="M181.047 92.5138C181.099 92.3491 181.143 92.1845 181.177 92.0198C181.143 92.1845 181.099 92.3578 181.047 92.5138Z" fill="#EE8222" stroke="#DB7127" stroke-miterlimit="10"/>
<path d="M177.537 2.73962V15.3503V2.73962Z" stroke="#DB7127" stroke-miterlimit="10"/>
<path d="M131.948 62.5168L180.519 74.6855L181.255 90.9624L179.825 59.57L139.67 49.5161L143.25 43.4925L179.505 52.5756L177.814 15.3503L162.292 11.4588L168.731 0.616211L123.61 76.5316C123.428 76.8436 123.281 77.173 123.186 77.5023C123.29 77.173 123.428 76.8523 123.61 76.5316L131.939 62.5255L131.948 62.5168ZM154.569 24.4595L178.508 30.4571L178.829 37.4515L150.99 30.4831L154.569 24.4595Z" fill="#E5E5E5"/>
<path d="M123.61 76.5316L168.731 0.616211L162.292 11.4588L177.814 15.3503L179.505 52.5756L143.25 43.4925L139.67 49.5161L179.825 59.57L181.255 90.9624L180.519 74.6855L131.948 62.5168L131.939 62.5255L123.61 76.5316ZM123.61 76.5316C123.428 76.8436 123.281 77.173 123.186 77.5023C123.29 77.173 123.428 76.8523 123.61 76.5316ZM154.569 24.4595L178.508 30.4571L178.829 37.4515L150.99 30.4831L154.569 24.4595Z" stroke="#DB7127" stroke-miterlimit="10"/>
<path d="M181.247 91.4998C181.23 91.6731 181.212 91.8464 181.178 92.0198C181.212 91.8551 181.238 91.6818 181.247 91.4998Z" stroke="#DB7127" stroke-miterlimit="10"/>
<path d="M123.012 78.9844C122.986 78.4904 123.038 77.9877 123.186 77.4937C123.038 77.9877 122.978 78.4904 123.012 78.9844Z" stroke="#DB7127" stroke-miterlimit="10"/>
<path d="M139.679 49.5162L179.834 59.5701L179.513 52.567L143.259 43.4926L139.679 49.5162Z" fill="#EE8222" stroke="#DB7127" stroke-miterlimit="10"/>
<path d="M178.508 30.4571L154.569 24.4595L150.99 30.4831L178.829 37.4515L178.508 30.4571Z" fill="#EE8222" stroke="#DB7127" stroke-miterlimit="10"/>
<path d="M181.247 91.4997C181.264 91.3264 181.264 91.1444 181.247 90.9624L180.51 74.6855L131.94 62.5168L123.61 76.5229C123.428 76.8349 123.281 77.1643 123.186 77.4936C123.038 77.9877 122.978 78.4904 123.012 78.9844C123.116 80.7958 124.356 82.4772 126.297 82.9626L175.856 95.3739C177.797 95.8593 179.687 94.9666 180.632 93.4152C180.805 93.1291 180.944 92.8258 181.048 92.5051C181.1 92.3404 181.143 92.1758 181.178 92.0111C181.212 91.8464 181.238 91.6731 181.247 91.4911V91.4997Z" fill="#EE8222" stroke="#DB7127" stroke-miterlimit="10"/>
<path d="M168.74 0.616211L162.3 11.4501L177.823 15.3417L177.251 2.73966L168.74 0.616211Z" fill="#EE8222" stroke="#DB7127" stroke-miterlimit="10"/>
<path d="M188.005 91.584L117.382 73.8972C115.441 73.4111 113.474 74.5905 112.988 76.5314C112.501 78.4723 113.681 80.4398 115.622 80.9259L186.245 98.6127C188.185 99.0988 190.153 97.9194 190.639 95.9785C191.125 94.0376 189.946 92.0701 188.005 91.584Z" fill="#333333" stroke="#212121" stroke-miterlimit="10"/>
<path d="M84.9106 262.831L87.798 272.48L84.9106 262.831Z" stroke="#DB7127" stroke-miterlimit="10"/>
<path d="M94.7832 323.787H21.3467C18.4692 323.787 16.1464 321.881 15.375 319.385C16.155 321.881 18.4692 323.787 21.3467 323.787H94.7832C97.6607 323.787 99.9835 321.881 100.755 319.385C99.9748 321.881 97.6607 323.787 94.7832 323.787Z" fill="#EE8222"/>
<path d="M94.7832 323.787H21.3467M94.7832 323.787C97.6607 323.787 99.9835 321.881 100.755 319.385C99.9748 321.881 97.6607 323.787 94.7832 323.787ZM21.3467 323.787C18.4692 323.787 16.1464 321.881 15.375 319.385C16.155 321.881 18.4692 323.787 21.3467 323.787Z" stroke="#DB7127" stroke-miterlimit="10"/>
<path d="M101.024 317.972C100.989 318.457 100.902 318.925 100.755 319.385C100.894 318.934 100.989 318.457 101.024 317.972Z" fill="#EE8222" stroke="#DB7127" stroke-miterlimit="10"/>
<path d="M101.023 317.972C101.041 317.729 101.041 317.486 101.023 317.235C101.032 317.478 101.032 317.729 101.023 317.972Z" fill="#EE8222" stroke="#DB7127" stroke-miterlimit="10"/>
<path d="M66.9619 193.746V211.877V193.746Z" stroke="#DB7127" stroke-miterlimit="10"/>
<path d="M22.0747 293.305H94.0552L100.772 315.744L87.8149 272.469H28.315L31.2012 262.823H84.9287L69.5619 211.496H46.5593L51.7596 194.127L15.3577 315.744L22.0747 293.305ZM40.3277 232.332H75.8022L78.6884 241.978H37.4328L40.319 232.332H40.3277Z" fill="#E5E5E5"/>
<path d="M15.3577 315.744L51.7596 194.127L46.5593 211.496H69.5619L84.9287 262.823H31.2012L28.315 272.469H87.8149L100.772 315.744L94.0552 293.305H22.0747L15.3577 315.744ZM15.3577 315.744C15.2103 316.247 15.1237 316.75 15.0977 317.244M40.3277 232.332H75.8022L78.6884 241.978H37.4328L40.319 232.332H40.3277Z" stroke="#DB7127" stroke-miterlimit="10"/>
<path d="M100.945 316.498C100.989 316.75 101.015 317.001 101.032 317.244C101.023 316.992 100.989 316.75 100.945 316.498Z" stroke="#DB7127" stroke-miterlimit="10"/>
<path d="M15.3663 319.385C15.1583 318.709 15.0543 317.98 15.0976 317.244C15.0629 317.98 15.1583 318.7 15.3663 319.385Z" stroke="#DB7127" stroke-miterlimit="10"/>
<path d="M28.3149 272.469H87.8148L84.9286 262.814H31.2011L28.3149 272.469Z" fill="#EE8222" stroke="#DB7127" stroke-miterlimit="10"/>
<path d="M75.802 232.332H40.3274L37.4326 241.978H78.6881L75.802 232.332Z" fill="#EE8222" stroke="#DB7127" stroke-miterlimit="10"/>
<path d="M100.946 316.498C100.902 316.247 100.842 315.996 100.772 315.744L94.0554 293.305H22.0748L15.3578 315.744C15.2105 316.247 15.1238 316.75 15.0978 317.244C15.0631 317.98 15.1585 318.7 15.3665 319.385C16.1465 321.881 18.4606 323.787 21.3381 323.787H94.7747C97.6522 323.787 99.975 321.881 100.746 319.385C100.885 318.934 100.98 318.457 101.015 317.972C101.032 317.729 101.032 317.486 101.015 317.235C101.006 316.984 100.972 316.741 100.928 316.49L100.946 316.498Z" fill="#EE8222" stroke="#DB7127" stroke-miterlimit="10"/>
<path d="M51.7594 194.127L46.5591 211.496H69.5616L64.37 194.127H51.7594Z" fill="#EE8222" stroke="#DB7127" stroke-miterlimit="10"/>
<path d="M111.268 314.262H4.86188C2.46852 314.262 0.52832 316.202 0.52832 318.596V320.347C0.52832 322.74 2.46852 324.68 4.86188 324.68H111.268C113.662 324.68 115.602 322.74 115.602 320.347V318.596C115.602 316.202 113.662 314.262 111.268 314.262Z" fill="#333333" stroke="#212121" stroke-miterlimit="10"/>
<path d="M139.728 189.01C139.592 188.858 134.692 189.07 130.428 193.698C126.164 198.322 126.82 203.626 126.916 203.762C127.012 203.898 132.996 204.11 136.816 198.73C140.636 193.35 139.864 189.166 139.728 189.01ZM152.984 235.942C152.792 235.558 143.684 231.006 144.532 222.254C145.38 213.498 151.232 211.098 151.324 210.838C151.416 210.578 148.936 207.678 146.308 206.21C144.379 205.175 142.243 204.582 140.056 204.474C139.624 204.462 138.124 204.094 135.04 204.938C133.008 205.494 128.428 207.294 127.168 207.366C125.904 207.438 122.144 205.278 118.1 204.706C115.512 204.206 112.768 205.23 110.804 206.018C108.844 206.802 105.116 209.034 102.508 214.966C99.9002 220.894 101.264 230.286 102.24 233.206C103.216 236.122 104.74 240.902 107.332 244.39C109.636 248.326 112.692 251.058 113.968 251.986C115.244 252.914 118.844 253.53 121.34 252.254C123.348 251.022 126.972 250.314 128.404 250.366C129.832 250.418 132.648 250.982 135.532 252.522C137.816 253.31 139.976 252.982 142.14 252.102C144.304 251.218 147.436 247.866 151.092 241.07C152.48 237.91 153.112 236.202 152.984 235.942Z" fill="white"/>
<path d="M139.728 189.01C139.592 188.858 134.692 189.07 130.428 193.698C126.164 198.322 126.82 203.626 126.916 203.762C127.012 203.898 132.996 204.11 136.816 198.73C140.636 193.35 139.864 189.166 139.728 189.01ZM152.984 235.942C152.792 235.558 143.684 231.006 144.532 222.254C145.38 213.498 151.232 211.098 151.324 210.838C151.416 210.578 148.936 207.678 146.308 206.21C144.379 205.175 142.243 204.582 140.056 204.474C139.624 204.462 138.124 204.094 135.04 204.938C133.008 205.494 128.428 207.294 127.168 207.366C125.904 207.438 122.144 205.278 118.1 204.706C115.512 204.206 112.768 205.23 110.804 206.018C108.844 206.802 105.116 209.034 102.508 214.966C99.9002 220.894 101.264 230.286 102.24 233.206C103.216 236.122 104.74 240.902 107.332 244.39C109.636 248.326 112.692 251.058 113.968 251.986C115.244 252.914 118.844 253.53 121.34 252.254C123.348 251.022 126.972 250.314 128.404 250.366C129.832 250.418 132.648 250.982 135.532 252.522C137.816 253.31 139.976 252.982 142.14 252.102C144.304 251.218 147.436 247.866 151.092 241.07C152.48 237.91 153.112 236.202 152.984 235.942Z" fill="white"/>
</g>
<defs>
<clipPath id="clip0_142_66">
<rect width="231.811" height="325" fill="white" transform="translate(0.0947266 0.113525)"/>
</clipPath>
</defs>
</svg>
