<svg width="211" height="251" viewBox="0 0 211 251" fill="none" xmlns="http://www.w3.org/2000/svg">
<g clip-path="url(#clip0_142_148)">
<path d="M210.817 105.431C210.817 163.592 163.67 210.748 105.5 210.748C47.3303 210.748 0.182617 163.592 0.182617 105.431C0.182617 47.2697 47.3303 0.113525 105.5 0.113525C163.67 0.113525 210.817 47.2612 210.817 105.431Z" fill="#5CB030"/>
<path d="M138.472 178.059L139.92 248.648M70.7798 179.508L72.2282 250.096" stroke="black" stroke-width="2.86" stroke-miterlimit="10"/>
<path d="M97.5207 53.0293C97.5378 55.9005 95.2237 58.2489 92.3525 58.2661C89.4813 58.2832 87.133 55.9691 87.1158 53.0979C87.0987 50.2267 89.4128 47.8783 92.284 47.8612C95.1552 47.844 97.5036 50.1581 97.5207 53.0293Z" fill="black"/>
<path d="M137.589 52.7636C137.606 55.6348 135.292 57.9832 132.421 58.0003C129.55 58.0175 127.201 55.7034 127.184 52.8322C127.167 49.961 129.481 47.6126 132.352 47.5954C135.224 47.5783 137.572 49.8924 137.589 52.7636Z" fill="black"/>
<path d="M140.014 74.9104C127.313 74.9104 116.985 64.5827 116.985 51.8808C116.985 39.179 127.321 28.8512 140.014 28.8512C152.708 28.8512 163.044 39.179 163.044 51.8808C163.044 64.5827 152.716 74.9104 140.014 74.9104ZM86.8502 75.6818C74.1483 75.6818 63.8206 65.3455 63.8206 52.6522C63.8206 39.9589 74.1569 29.6226 86.8502 29.6226C99.5434 29.6226 109.88 39.9503 109.88 52.6522C109.88 65.354 99.5434 75.6818 86.8502 75.6818ZM174.983 28.9027L173.62 27.857L162.71 42.0416C158.896 33.2823 150.162 27.1371 140.014 27.1371C127.784 27.1371 117.602 36.0592 115.622 47.7411L111.191 48.2383C109.1 36.6935 98.9863 27.9085 86.8502 27.9085C74.714 27.9085 64.4548 36.8135 62.4664 48.4782L36.9342 32.2795L36.0171 33.728L62.2178 50.3552C62.1493 51.1095 62.1064 51.8808 62.1064 52.6522C62.1064 66.2968 73.2055 77.3959 86.8502 77.3959C100.495 77.3959 111.594 66.2968 111.594 52.6522C111.594 51.7351 111.542 50.8266 111.44 49.9353L115.391 49.4896C115.314 50.2781 115.271 51.0752 115.271 51.8808C115.271 65.5254 126.37 76.6245 140.014 76.6245C153.659 76.6245 164.758 65.5254 164.758 51.8808C164.758 49.0953 164.287 46.4127 163.43 43.91L174.975 28.9027H174.983Z" fill="white"/>
<path d="M133.595 148.019L142.611 153.067M142.611 153.067L132.489 154.875M142.611 153.067L135.9 160.524M142.611 153.067C201.861 148.045 180.537 95.1288 180.537 95.1288" stroke="black" stroke-width="2.86" stroke-linecap="round" stroke-linejoin="round"/>
<path d="M83.7132 157.232L73.6254 155.253L82.7275 150.359M36.6941 96.6801C36.6941 96.6801 14.4787 149.227 73.634 155.253L80.2163 162.82" stroke="black" stroke-width="2.86" stroke-linecap="round" stroke-linejoin="round"/>
<path d="M109.237 72.1592C111.799 74.9532 114.885 75.1418 118.236 73.959" stroke="#1D1D1B" stroke-width="2.86" stroke-linecap="round" stroke-linejoin="round"/>
<path d="M130.222 159.478C133.926 157.297 133.926 151.846 130.222 149.665L120.598 143.998L109.145 154.571L120.599 165.144L130.222 159.478Z" fill="white"/>
<path d="M117.384 167.037L106.512 157.001L83.1085 178.605C83.8261 182.281 87.9631 184.36 91.3333 182.375L117.384 167.037Z" fill="white"/>
<path d="M83 173.844L83 135.298L103.879 154.571L83 173.844Z" fill="white"/>
<path d="M83.1086 130.538L106.512 152.141L117.384 142.106L91.3333 126.768C87.9632 124.783 83.8264 126.861 83.1086 130.538Z" fill="white"/>
</g>
<defs>
<clipPath id="clip0_142_148">
<rect width="210.635" height="250" fill="white" transform="translate(0.182617 0.113525)"/>
</clipPath>
</defs>
</svg>
