<?xml version="1.0" encoding="UTF-8"?>
<svg id="Layer_2" data-name="Layer 2" xmlns="http://www.w3.org/2000/svg" viewBox="0 0 1836.36 919.28">
  <defs>
    <style>
      .cls-1 {
        fill: #fff;
      }

      .cls-2 {
        fill: none;
      }
    </style>
  </defs>
  <g id="Calque_1" data-name="Calque 1">
    <g id="Calque_1-2" data-name="Calque 1">
      <g id="Logo-Clair-N_B" data-name="Logo-Clair-N B">
        <path class="cls-2" d="m1390.25,244.31c-14.13-8.53-30.62-12.79-49.58-12.79s-34.77,4.26-48.91,12.79c-14.13,8.53-25.24,20.42-33.31,35.67-8.08,15.26-12.11,32.87-12.11,52.72s4.04,37.47,12.11,52.72c8.08,15.26,19.18,27.15,33.31,35.67,14.13,8.53,30.4,12.79,48.91,12.79,28.16,0,50.93-9.42,68.31-28.38,17.39-18.96,26.02-43.19,26.02-72.8,0-19.85-3.93-37.47-11.78-52.72-7.85-15.26-18.84-27.15-32.98-35.67Z"/>
        <path class="cls-2" d="m457.88,385.42c8.08,15.26,19.18,27.15,33.31,35.67,14.13,8.53,30.4,12.79,48.91,12.79,28.16,0,50.93-9.42,68.31-28.38,17.39-18.96,26.02-43.19,26.02-72.8,0-10.54-1.23-20.42-3.37-29.61-20.75-58.89-86.15-64.5-102.52-60.68h0c-31.07,4.37-58.44,22.88-76.39,51.49-4.15,11.78-6.28,24.79-6.28,38.92,0,19.85,4.04,37.47,12.11,52.72l-.11-.11Z"/>
        <g>
          <path class="cls-1" d="m1028.05,166.35v35c-9.2-10.43-20.3-19.07-33.31-26.02-19.85-10.66-42.96-15.93-69.32-15.93-29.61,0-56.31,7.29-80.09,21.87-23.78,14.58-42.51,34.32-56.2,59.23-13.68,24.9-20.42,53.17-20.42,84.58s6.84,59.9,20.42,85.25c13.57,25.46,32.31,45.43,56.2,60.01,23.78,14.58,50.48,21.87,80.09,21.87,25.91,0,48.79-5.27,68.65-15.93,13.24-7.07,24.57-16.04,33.99-26.81v35.78c0,26.81-8.75,47.9-26.36,63.38s-41.39,23.22-71.45,23.22c-24,0-44.64-4.15-61.69-12.45-17.05-8.3-32.31-20.75-45.77-37.47l-49.92,49.92c16.15,23.11,37.47,41.05,63.83,53.73,26.36,12.68,57.1,19.07,92.21,19.07s65.17-6.73,91.53-20.08c26.36-13.46,46.89-31.97,61.69-55.75,14.81-23.78,22.21-51.6,22.21-83.57V166.35h-76.28Zm-38.81,241.95c-13.91,7.85-30.06,11.78-48.57,11.78s-34.77-3.93-48.91-11.78c-14.13-7.85-25.13-18.96-32.98-33.31-7.85-14.36-11.78-30.74-11.78-49.24s3.93-35.45,11.78-49.58c7.85-14.13,18.84-25.01,32.98-32.98,14.13-7.85,30.4-11.78,48.91-11.78s34.66,3.93,48.57,11.78c13.91,7.85,24.57,18.84,32.19,32.98,7.63,14.13,11.44,30.62,11.44,49.58s-3.81,35.45-11.44,49.58c-7.63,14.13-18.4,25.13-32.19,32.98Z"/>
          <path class="cls-1" d="m1798.9,168.48c-13.46-5.95-28.38-8.97-45.09-8.97-37.91,0-66.18,13.01-84.91,39.15-.67.9-1.12,1.79-1.68,2.69v-34.89h-76.28v332.7h76.28v-185.08c0-28.6,6.95-49.69,20.75-63.04,13.91-13.35,31.41-20.08,52.72-20.08,9.76,0,18.28,1.35,25.69,4.15,7.4,2.8,14.13,7.4,20.08,13.91l49.92-51.26c-11.55-13.35-24-23.11-37.47-29.16v-.11Z"/>
          <g>
            <path class="cls-1" d="m1430.08,166.35v17.64l9.07,12.89c2.24,3.19,4.81,6.59,7.53,10.2,9.18,12.19,20.61,27.37,29.64,47.52,10.58,23.63,15.72,49.18,15.72,78.1,0,49.15-20.3,82.54-41.8,117.89-3.47,5.7-7.05,11.6-10.6,17.63l-9.56,16.26v14.58s3.81,0,3.81,0c-.04.04-.08.08-.1.11h72.57V166.35h-76.28Z"/>
            <path class="cls-1" d="m1480.94,332.7c0-71.12-33.19-104.31-50.87-129.45-9.65-11.11-20.98-20.19-34.32-27.59-19.63-10.88-42.18-16.26-67.64-16.26-30.06,0-57.21,7.74-81.44,23.22-24.23,15.48-43.41,36.23-57.54,62.37-14.13,26.14-21.09,55.53-21.09,88.39s7.07,61.58,21.09,87.72c14.13,26.14,33.32,46.78,57.54,62.03,24.23,15.26,51.37,22.88,81.44,22.88,25.46,0,48.01-5.5,67.98-16.26,13.24-7.18,24.57-16.26,33.99-27.15,25.43-43.27,50.87-76.3,50.87-129.89Zm-71.96,72.8c-17.27,18.96-40.05,28.38-68.31,28.38-18.51,0-34.77-4.26-48.91-12.79-14.13-8.53-25.24-20.42-33.31-35.67-8.08-15.26-12.11-32.75-12.11-52.72s4.04-37.47,12.11-52.72c8.08-15.26,19.18-27.15,33.31-35.67,14.13-8.53,30.4-12.79,48.91-12.79s35.45,4.26,49.58,12.79c14.13,8.53,25.01,20.42,32.98,35.67,2.77,5.39,5.05,11.08,6.84,17.05,3.28,10.93,4.94,22.83,4.94,35.67s-1.64,24.79-4.94,35.67c-4.26,14.07-11.28,26.44-21.09,37.13Z"/>
          </g>
          <path class="cls-1" d="m310.27,238.48c-13.68-24.9-32.31-44.64-56.2-58.89-23.78-14.36-51.15-21.54-82.11-21.54s-60.91,7.63-87.05,22.88c-26.14,15.26-46.78,35.89-62.03,62.03C7.63,269.1,0,298.49,0,331.35s7.74,62.37,23.22,88.73c15.48,26.36,36.46,47,63.04,62.03,26.58,15.03,56.53,22.55,89.74,22.55,25.91,0,50.37-4.82,73.47-14.58,23.11-9.76,42.74-24,58.89-42.96l-48.57-49.24c-10.21,11.55-22.55,20.3-37.13,26.36-14.58,6.06-30.4,8.97-47.45,8.97-19.85,0-37.47-4.26-52.72-12.79s-27.03-20.64-35.33-36.34c-3.93-7.52-6.95-15.59-9.09-24.23h248.24c1.35-6.95,2.47-13.24,3.14-19.07.67-5.72,1.01-11.44,1.01-16.94,0-31.86-6.84-60.35-20.42-85.25l.22-.11Zm-223.56,37.13c7.85-15.03,18.96-26.7,33.31-35,14.36-8.3,31.18-12.45,50.59-12.45s34.1,3.7,46.78,11.1c12.68,7.4,22.55,18.06,29.5,31.86,3.93,7.74,6.73,16.6,8.75,26.36H78.63c1.91-7.85,4.6-15.14,8.08-21.87Z"/>
          <path class="cls-1" d="m451.94,449.14c-1.68-1.68-2.8-3.59-3.81-5.38-.79-1.35-1.57-2.58-2.24-3.25l-.34-.34-.22-.34c-30.74-43.41-33.09-97.93-6.62-145.82,19.52-34.89,51.71-57.77,88.39-62.93v-.22c88.84-9.53,104.32,73.25,104.32,73.25-.11-.34-.34-.67-.45-1.01,2.24,9.2,3.37,19.07,3.37,29.61,0,29.61-8.64,53.84-26.02,72.8-17.27,18.96-40.05,28.38-68.31,28.38-18.51,0-34.77-4.26-48.91-12.79-14.13-8.53-25.24-20.42-33.31-35.67-8.08-15.26-12.11-32.75-12.11-52.72,0-14.13,2.13-27.03,6.28-38.92-1.12,1.91-2.47,3.59-3.48,5.61-24.34,43.86-22.21,93.66,5.72,133.48,1.57,1.68,2.58,3.48,3.59,5.05.79,1.35,1.57,2.58,2.24,3.25l.22.22c21.76,24,48.57,42.06,71.34,64.39,23.78-.56,45.09-5.83,63.83-16.04,13.24-7.18,24.57-16.26,33.99-27.15v36.46h76.28V0h-76.28v203.48c-9.65-11.1-20.98-20.3-34.32-27.71-19.63-10.88-42.18-16.26-67.53-16.26-30.06,0-57.21,7.74-81.44,23.22-24.23,15.48-43.41,36.23-57.54,62.37-14.13,26.14-21.09,55.52-21.09,88.39s7.07,61.58,21.09,87.72c14.13,26.14,33.31,46.78,57.54,62.03,20.75,13.12,43.75,20.53,68.76,22.32-20.53-18.51-43.52-35.11-62.93-56.42h0Z"/>
        </g>
        <g>
          <g>
            <path class="cls-1" d="m1326.27,567.09c-15.7,4.04-28.94,14.02-37.24,28.04-8.3,14.02-10.66,30.4-6.62,46.1,4.04,15.7,14.02,28.94,28.04,37.24,9.53,5.61,20.08,8.53,30.85,8.53,5.05,0,10.21-.67,15.26-1.91,15.7-4.04,28.94-14.02,37.24-28.04,8.3-14.02,10.66-30.4,6.62-46.1-4.04-15.7-14.02-28.94-28.04-37.24-14.02-8.3-30.4-10.66-46.1-6.62Z"/>
            <path class="cls-1" d="m1430.08,462.6c-1.91,3.14-3.81,6.29-5.61,9.32-15.14,24.92-30.74,50.73-45.54,76.99-39.71-19.31-88.39-5.16-111.27,33.45-24.12,40.74-10.54,93.38,30.17,117.51,13.35,7.97,28.38,12.01,43.52,12.01,7.18,0,14.36-.9,21.42-2.69,22.21-5.72,40.83-19.75,52.5-39.4,11.67-19.75,14.92-42.76,9.2-64.99-5.38-20.88-18.06-38.5-35.89-50.28,13.52-23.96,27.7-47.44,41.5-70.27v-5.94h-.11.11v-15.71Zm-16.6,144.9l.11.11c4.94,19.3,2.13,39.4-8.08,56.46-10.1,17.17-26.36,29.29-45.65,34.23-19.29,4.94-39.37,2.13-56.42-8.08-35.33-20.88-47.11-66.78-26.25-102.14,13.91-23.46,38.81-36.59,64.27-36.59,12.9,0,25.91,3.37,37.8,10.33,17.16,10.1,29.28,26.38,34.21,45.68Z"/>
          </g>
          <path class="cls-1" d="m879.87,739.88c-18.06-22.88-94.56-119.24-99.61-125.63,1.79-3.14,1.46-7.29-1.01-10.21l-43.41-51.26s-.34-.34-.56-.56c-27.48-28.16-59.56-40.61-95.46-37.13-29.05,2.8-53.06,15.7-64.72,23.11-.34.22-.56.45-.9.67h-.22c-1.79.56-5.27,2.92-9.2,6.06-5.16-6.62-10.32-13.24-15.37-19.74-5.5-6.95-11.44-13.35-17.72-19.41-1.35,0-2.69.22-4.04.22-4.26,0-8.53-.22-12.68-.56,9.2,8.3,18.06,16.94,25.58,26.7,5.16,6.51,10.32,13.12,15.59,19.85-5.05,4.26-9.2,7.96-9.53,8.3l-.34.22v.34s-.34.45-.56.67c-9.53,9.98-26.81,31.07-35.33,59-10.43,34.44-4.49,68.42,17.72,100.84.11.22.34.45.45.67l41.84,52.61c1.46,1.79,3.48,2.92,5.61,3.25,1.57.22,3.25,0,4.71-.56,8.97,10.66,84.8,101.07,103.09,122.6,9.42,11.1,19.18,17.5,28.83,18.96,7.07,1.12,14.13-.34,21.2-4.15,6.62-3.59,20.19-15.26,27.15-21.42l3.37,4.15c1.46,1.79,3.37,2.8,5.5,3.14,2.47.34,4.94-.22,7.07-1.91l26.02-21.31c3.81-3.14,4.37-8.75,1.23-12.45l-14.69-17.95c-3.14-3.81-8.75-4.37-12.45-1.23l-26.02,21.31c-3.81,3.14-4.37,8.75-1.23,12.45l7.4,8.97c-6.73,5.95-20.08,17.5-26.14,20.86-14.13,7.74-28.04,3.37-42.29-13.35-18.4-21.65-94.79-112.62-103.2-122.72.45-.9.79-1.79.9-2.69.45-2.58-.22-5.16-1.91-7.18l-42.18-51.37s-.45-.56-.67-.9c-4.37-7.4-40.49-73.58,17.27-132.25.67-.34,1.35-1.01,1.91-1.91.67-.67,1.23-1.35,1.57-2.13,6.17-7.4,20.08-15.93,23.89-18.06.34-.11.67-.34,1.01-.56l.45-.22h0c69.66-47.34,128.44,1.91,134.94,7.63.22.22.56.56.79.79l42.18,51.37c1.35,1.68,3.37,2.8,5.5,3.14h1.12c1.23,0,2.36-.22,3.48-.56,6.06,7.74,81.66,102.75,99.5,125.41,13.68,17.27,15.26,31.74,4.82,44.08-4.49,5.27-18.4,16.15-25.58,21.54l-7.4-8.97c-1.46-1.79-3.59-3.03-5.95-3.25-2.36-.22-4.71.45-6.51,2.02l-26.02,21.31c-1.79,1.46-2.92,3.59-3.25,5.95-.22,2.36.45,4.71,2.02,6.51l14.69,17.95c1.35,1.68,3.37,2.8,5.5,3.14h.56c2.36.22,4.71-.45,6.51-2.02l26.02-21.31c1.79-1.46,2.92-3.59,3.25-5.95.22-2.36-.45-4.71-2.02-6.51l-3.37-4.15c7.4-5.61,21.54-16.6,26.36-22.32,12.45-14.81,10.88-32.31-4.71-52.05l-.34.11Zm-97.81,115.87l11.67,14.25-22.43,18.4-11.67-14.25,22.43-18.4Zm46.89-13.8l-11.67-14.25,22.43-18.4,11.67,14.25-22.43,18.4Z"/>
        </g>
      </g>
    </g>
  </g>
</svg>