<svg id="Calque_1" data-name="Calque 1" xmlns="http://www.w3.org/2000/svg" xmlns:xlink="http://www.w3.org/1999/xlink" viewBox="0 0 1920 1080"><defs><clipPath id="clip-path"><rect width="1920" height="1080" style="fill:none"/></clipPath></defs><title>Plan de travail 1</title><g style="clip-path:url(#clip-path)"><path d="M1068.74683,269.72571v35.035a119.5772,119.5772,0,0,0-33.272-26.026q-29.814-15.93448-69.319-15.942-44.373,0-80.064,21.836a155.48351,155.48351,0,0,0-56.151,59.266q-20.454,37.434-20.446,84.573,0,47.145,20.446,85.261,20.439,38.136,56.151,59.963,35.694,21.83551,80.064,21.836,38.81544,0,68.627-15.947a119.92225,119.92225,0,0,0,33.964-26.806v35.82q0,40.19847-26.34,63.425-26.3551,23.217-71.4,23.225-36.05247,0-61.695-12.48-25.65143-12.47549-45.75195-37.431l-49.906,49.911q24.255,34.6545,63.77,53.724,39.51893,19.056,92.19794,19.061,51.98556,0,91.501-20.1,39.51745-20.11652,61.694-55.805,22.179-35.70753,22.181-83.53v-318.869Zm-38.81495,241.926q-20.79758,11.796-48.527,11.783-27.729,0-48.868-11.783a82.8662,82.8662,0,0,1-32.931-33.277q-11.78841-21.477-11.78295-49.214,0-28.41751,11.78295-49.565a83.57039,83.57039,0,0,1,32.931-32.927q21.13347-11.77954,48.868-11.783,27.714,0,48.527,11.783a81.94078,81.94078,0,0,1,32.22889,32.927q11.445,21.156,11.442,49.565,0,28.431-11.442,49.56a81.82547,81.82547,0,0,1-32.22889,32.931" style="fill:#2e4b9a"/><path d="M1839.57605,271.80219q-20.11817-9.00147-45.061-9.009-56.84856,0-84.91406,39.166c-.61694.861-1.13891,1.803-1.735,2.681v-34.915h-76.252V602.46017h76.252v-185.088q0-42.969,20.797-63.079,20.79748-20.094,52.68006-20.105a72.83329,72.83329,0,0,1,25.65295,4.164,52.6509,52.6509,0,0,1,20.1,13.86l49.911-51.296q-17.33844-20.09546-37.43091-29.114" style="fill:#2e4b9a"/><path d="M351.01779,341.87244a153.09689,153.09689,0,0,0-56.148-58.921q-35.709-21.48-82.143-21.489-47.832,0-86.996,22.876a169.979,169.979,0,0,0-62.043,62.041q-22.8735,39.16946-22.874,88.383,0,49.22846,23.22,88.729a167.46651,167.46651,0,0,0,63.081,62.04q39.8535,22.53447,89.77,22.53a187.88075,187.88075,0,0,0,73.48-14.557,155.63744,155.63744,0,0,0,58.92-42.979l-48.521-49.216a98.9,98.9,0,0,1-37.088,26.34,123.21432,123.21432,0,0,1-47.483,9.012q-29.814,0-52.685-12.824a87.97307,87.97307,0,0,1-35.352-36.393,102.75036,102.75036,0,0,1-9.043-24.26105h248.195q2.08053-10.39792,3.121-19.064a142.65263,142.65263,0,0,0,1.04-16.982q0-47.832-20.451-85.265m-223.554,37.087a85.25123,85.25123,0,0,1,33.272-35.00494q21.477-12.48,50.604-12.478,27.7185,0,46.791,11.09,19.056,11.09847,29.46,31.886a106.35476,106.35476,0,0,1,8.776,26.343H119.3428a97.31019,97.31019,0,0,1,8.121-21.83606" style="fill:#2e4b9a"/><path d="M1462.82043,574.25232q-3.90143,3.69447-8.15393,7.056c-7.073,15.917-14.151,31.451-20.66,45.695-11.538,25.28-23.44995,51.381-34.65894,77.953-43.00207-12.651-89.85607,8.763-108.167,50.14a90.39459,90.39459,0,0,0,93.13294,126.432,90.97574,90.97574,0,0,0,22.144-5.509,90.41654,90.41654,0,0,0,11.858-163.076c11.29993-26.772,23.559-53.609,34.53089-77.643,5.925-12.967,11.94409-26.237,17.953-39.668v-29.645c-2.51892,2.888-5.193,5.629-7.979,8.265m-15.10388,188.886a79.17792,79.17792,0,1,1-146.25805-3.496,79.22481,79.22481,0,0,1,104.443-40.373,78.69233,78.69233,0,0,1,41.81506,43.869" style="fill:#5baf30"/><path d="M1352.12927,734.3714a60.92026,60.92026,0,0,0,28.99,117.326,61.2415,61.2415,0,0,0,14.922-3.714,60.90146,60.90146,0,1,0-43.912-113.612" style="fill:#5baf30"/><path d="M865.29413,861.4008c-16.121-24.234-84.69-126.487-89.225-133.249a8.92106,8.92106,0,0,0-.143-10.247l-39.162-54.621c-.148-.206-.307-.41-.468-.605-25.118-30.249-56.122-45.268-92.149-44.64-29.203.508-54.137,11.356-66.4,17.777a8.697,8.697,0,0,0-.92395.568c-.093.012-.186.016-.278.036-1.782.378-5.479,2.535-9.657,5.271-4.627-7.04-9.252-14.029-13.783-20.869-2.941-4.438-5.798-8.788-8.695-13.175a151.21038,151.21038,0,0,1-15.522-3.121q7.4415,11.33853,14.849,22.503c4.57,6.898,9.234,13.945,13.898,21.041-5.351,3.83-9.787,7.197-10.20294,7.513l-.315.24.072.338a8.51269,8.51269,0,0,0-.763.608c-10.314,9.233-29.215,28.78-39.931,55.952-13.221,33.519-10.026,67.821,9.496,101.949.126.221.263.44.404.652l37.423,55.827a9.017,9.017,0,0,0,5.372,3.747,8.60909,8.60909,0,0,0,4.736-.21c8.082,11.379,76.362,107.515,92.942,130.471,8.547,11.835,17.66,18.926,27.253,21.241q10.38,2.5065,21.476-2.462c6.86-3.08,21.304-13.633,28.736-19.209l3.024,4.36a8.898,8.898,0,0,0,12.366,2.241l27.658-19.179a8.89589,8.89589,0,0,0,2.238-12.364l-13.204-19.042a8.89629,8.89629,0,0,0-12.365-2.238l-27.657,19.176a8.89966,8.89966,0,0,0-2.239,12.367l6.617,9.542c-7.198,5.402-21.417,15.817-27.731,18.652-14.748,6.621-28.195,1.146-41.112-16.741-16.64-23.037-85.441-119.909-93.019-130.579a8.93293,8.93293,0,0,0-.181-9.928l-37.898-54.657a7.00818,7.00818,0,0,1-.581-.987c-3.743-7.749-34.413-76.599,27.918-130.454a5.39444,5.39444,0,0,0,2.074-1.777,8.869,8.869,0,0,0,1.772-2.049c6.741-6.927,21.281-14.213,25.224-16.118a8.95013,8.95013,0,0,0,1.005-.479l.427-.197-.006-.033c73.277-41.529,127.908,12.241,133.905,18.52a7.24877,7.24877,0,0,1,.721.889l37.899,54.657a8.95608,8.95608,0,0,0,5.26,3.603,8.76,8.76,0,0,0,1.089.192,8.89392,8.89392,0,0,0,3.466-.297c5.472,8.16,73.102,109.014,89.094,133.052,12.22,18.368,12.634,32.88,1.264,44.369-4.869,4.92-19.609,14.585-27.192,19.433l-6.618-9.544a8.89424,8.89424,0,0,0-12.365-2.238l-27.656,19.176a8.89648,8.89648,0,0,0-2.24,12.366l13.204,19.042a8.81583,8.81583,0,0,0,5.205,3.568c.169.041.341.077.514.108a8.81867,8.81867,0,0,0,6.646-1.438l27.656-19.177a8.89258,8.89258,0,0,0,2.24-12.365l-3.024-4.362c7.828-5.005,22.776-14.831,28.066-20.177,13.587-13.727,13.418-31.297-.50305-52.219m-106.773,107.678,10.524,15.177-23.794,16.498-10.524-15.179Zm47.867-9.952-10.524-15.176,23.794-16.499,10.523,15.177Z" style="fill:#5baf30"/><polygon points="517.238 601.027 552.611 652.08 566.888 641.691 544.41 607.647 517.238 601.027" style="fill:#5baf30"/><path d="M1301.00208,379.6499s34.396-61.598,96.735-54.337l.588-.159,5.58594.717c39.844,5.116,63.066,38.652,80.527,70.782l.146.288c13.4181,26.645,20.109,56.667,19.881,89.226-.71192,29.15-10.132,54.38-19.70691,77.734-4.59009,10.715-9.27307,21.261-13.958,31.731v6.828h76.251V269.726h-76.251v37.057A125.234,125.234,0,0,0,1436.49,279.08q-29.47046-16.27653-67.589-16.28705-45.06756,0-81.453,23.22-36.38691,23.232-57.53,62.387-21.15747,39.17257-21.14295,88.385,0,48.52653,21.14295,87.688,21.132,39.174,57.53,62.04,36.39606,22.8825,81.453,22.879,38.11194,0,67.93506-16.293a126.5136,126.5136,0,0,0,17.83-11.791c3.729-8.391,7.455-16.854,11.09594-25.366,8.80908-21.442,17.49012-44.577,18.12012-70.09406a178.107,178.107,0,0,0-8.62708-57.623c.146,2.615.401,5.167.401,7.868q0,44.36544-25.999,72.785-25.98889,28.431-68.275,28.422-27.73792,0-48.8739-12.827A90.08776,90.08776,0,0,1,1299.236,488.773q-12.13933-22.875-12.13391-52.68,0-29.799,12.13391-52.685" style="fill:#2e4b9a"/><path d="M670.17072,103.35822v203.429a125.22768,125.22768,0,0,0-34.317-27.707q-29.469-16.27808-67.583-16.28705-45.075,0-81.453,23.22-36.3945,23.232-57.535,62.386-21.156,39.174-21.144,88.386,0,48.52652,21.144,87.688,21.13948,39.17257,57.535,62.04a145.77337,145.77337,0,0,0,30.41995,14.514c-35.296-53.116-77.40695-138.826-38.94195-205.113,0,0,60.564-102.97,134.589-62.434,47.009,24.12,57.552,62.711,62.023,100.379.012.76.113,1.467.113,2.233q0,44.367-25.994,72.785-25.99648,28.43243-68.28,28.422-27.729,0-48.873-12.82605a90.163,90.163,0,0,1-33.273-35.701q-12.13052-22.87345-12.129-52.68a130.34219,130.34219,0,0,1,.849-14.914c-21.376,62.354,26.362,142.822,57.899,186.557a164.56007,164.56007,0,0,0,23.051,1.657q38.115,0,67.93-16.293a122.714,122.714,0,0,0,33.97-27.118v36.479h76.25v-499.102Z" style="fill:#2e4b9a"/></g></svg>