<svg width="295" height="402" viewBox="0 0 295 402" fill="none" xmlns="http://www.w3.org/2000/svg">
<path d="M38.536 11.528V16.424H44.296V18.656H38.536V23.768H45.016V26H35.8V9.296H45.016V11.528H38.536ZM47.4739 19.328C47.4739 18 47.7459 16.824 48.2899 15.8C48.8499 14.776 49.6019 13.984 50.5459 13.424C51.5059 12.848 52.5699 12.56 53.7379 12.56C54.6019 12.56 55.4499 12.752 56.2819 13.136C57.1299 13.504 57.8019 14 58.2979 14.624V8.24H61.0579V26H58.2979V24.008C57.8499 24.648 57.2259 25.176 56.4259 25.592C55.6419 26.008 54.7379 26.216 53.7139 26.216C52.5619 26.216 51.5059 25.928 50.5459 25.352C49.6019 24.76 48.8499 23.944 48.2899 22.904C47.7459 21.848 47.4739 20.656 47.4739 19.328ZM58.2979 19.376C58.2979 18.464 58.1059 17.672 57.7219 17C57.3539 16.328 56.8659 15.816 56.2579 15.464C55.6499 15.112 54.9939 14.936 54.2899 14.936C53.5859 14.936 52.9299 15.112 52.3219 15.464C51.7139 15.8 51.2179 16.304 50.8339 16.976C50.4659 17.632 50.2819 18.416 50.2819 19.328C50.2819 20.24 50.4659 21.04 50.8339 21.728C51.2179 22.416 51.7139 22.944 52.3219 23.312C52.9459 23.664 53.6019 23.84 54.2899 23.84C54.9939 23.84 55.6499 23.664 56.2579 23.312C56.8659 22.96 57.3539 22.448 57.7219 21.776C58.1059 21.088 58.2979 20.288 58.2979 19.376ZM69.9796 12.56C71.0036 12.56 71.9076 12.768 72.6916 13.184C73.4916 13.584 74.1156 14.088 74.5636 14.696V12.776H77.3236V26.216C77.3236 27.432 77.0676 28.512 76.5556 29.456C76.0436 30.416 75.2996 31.168 74.3236 31.712C73.3636 32.256 72.2116 32.528 70.8676 32.528C69.0756 32.528 67.5876 32.104 66.4036 31.256C65.2196 30.424 64.5476 29.288 64.3876 27.848H67.0996C67.3076 28.536 67.7476 29.088 68.4196 29.504C69.1076 29.936 69.9236 30.152 70.8676 30.152C71.9716 30.152 72.8596 29.816 73.5316 29.144C74.2196 28.472 74.5636 27.496 74.5636 26.216V24.008C74.0996 24.632 73.4676 25.16 72.6676 25.592C71.8836 26.008 70.9876 26.216 69.9796 26.216C68.8276 26.216 67.7716 25.928 66.8116 25.352C65.8676 24.76 65.1156 23.944 64.5556 22.904C64.0116 21.848 63.7396 20.656 63.7396 19.328C63.7396 18 64.0116 16.824 64.5556 15.8C65.1156 14.776 65.8676 13.984 66.8116 13.424C67.7716 12.848 68.8276 12.56 69.9796 12.56ZM74.5636 19.376C74.5636 18.464 74.3716 17.672 73.9876 17C73.6196 16.328 73.1316 15.816 72.5236 15.464C71.9156 15.112 71.2596 14.936 70.5556 14.936C69.8516 14.936 69.1956 15.112 68.5876 15.464C67.9796 15.8 67.4836 16.304 67.0996 16.976C66.7316 17.632 66.5476 18.416 66.5476 19.328C66.5476 20.24 66.7316 21.04 67.0996 21.728C67.4836 22.416 67.9796 22.944 68.5876 23.312C69.2116 23.664 69.8676 23.84 70.5556 23.84C71.2596 23.84 71.9156 23.664 72.5236 23.312C73.1316 22.96 73.6196 22.448 73.9876 21.776C74.3716 21.088 74.5636 20.288 74.5636 19.376ZM80.0052 19.328C80.0052 18 80.2772 16.824 80.8212 15.8C81.3812 14.776 82.1332 13.984 83.0772 13.424C84.0372 12.848 85.0932 12.56 86.2452 12.56C87.2852 12.56 88.1892 12.768 88.9572 13.184C89.7412 13.584 90.3652 14.088 90.8292 14.696V12.776H93.5892V26H90.8292V24.032C90.3652 24.656 89.7332 25.176 88.9332 25.592C88.1332 26.008 87.2212 26.216 86.1972 26.216C85.0612 26.216 84.0212 25.928 83.0772 25.352C82.1332 24.76 81.3812 23.944 80.8212 22.904C80.2772 21.848 80.0052 20.656 80.0052 19.328ZM90.8292 19.376C90.8292 18.464 90.6372 17.672 90.2532 17C89.8852 16.328 89.3972 15.816 88.7892 15.464C88.1812 15.112 87.5252 14.936 86.8212 14.936C86.1172 14.936 85.4612 15.112 84.8532 15.464C84.2452 15.8 83.7492 16.304 83.3652 16.976C82.9972 17.632 82.8132 18.416 82.8132 19.328C82.8132 20.24 82.9972 21.04 83.3652 21.728C83.7492 22.416 84.2452 22.944 84.8532 23.312C85.4772 23.664 86.1332 23.84 86.8212 23.84C87.5252 23.84 88.1812 23.664 88.7892 23.312C89.3972 22.96 89.8852 22.448 90.2532 21.776C90.6372 21.088 90.8292 20.288 90.8292 19.376ZM99.9188 14.696C100.319 14.024 100.847 13.504 101.503 13.136C102.175 12.752 102.967 12.56 103.879 12.56V15.392H103.183C102.111 15.392 101.295 15.664 100.735 16.208C100.191 16.752 99.9188 17.696 99.9188 19.04V26H97.1828V12.776H99.9188V14.696ZM109.394 22.712L106.49 29.336H104.714L106.418 22.712H109.394ZM117.107 19.376C117.107 18.016 117.379 16.824 117.923 15.8C118.483 14.76 119.251 13.96 120.227 13.4C121.203 12.84 122.323 12.56 123.587 12.56C125.187 12.56 126.507 12.944 127.547 13.712C128.603 14.464 129.315 15.544 129.683 16.952H126.731C126.491 16.296 126.107 15.784 125.579 15.416C125.051 15.048 124.387 14.864 123.587 14.864C122.467 14.864 121.571 15.264 120.899 16.064C120.243 16.848 119.915 17.952 119.915 19.376C119.915 20.8 120.243 21.912 120.899 22.712C121.571 23.512 122.467 23.912 123.587 23.912C125.171 23.912 126.219 23.216 126.731 21.824H129.683C129.299 23.168 128.579 24.24 127.523 25.04C126.467 25.824 125.155 26.216 123.587 26.216C122.323 26.216 121.203 25.936 120.227 25.376C119.251 24.8 118.483 24 117.923 22.976C117.379 21.936 117.107 20.736 117.107 19.376ZM132.841 9.32H135.817L133.297 15.032H131.377L132.841 9.32ZM150.342 19.064C150.342 19.56 150.31 20.008 150.246 20.408H140.142C140.222 21.464 140.614 22.312 141.318 22.952C142.022 23.592 142.886 23.912 143.91 23.912C145.382 23.912 146.422 23.296 147.03 22.064H149.982C149.582 23.28 148.854 24.28 147.798 25.064C146.758 25.832 145.462 26.216 143.91 26.216C142.646 26.216 141.51 25.936 140.502 25.376C139.51 24.8 138.726 24 138.15 22.976C137.59 21.936 137.31 20.736 137.31 19.376C137.31 18.016 137.582 16.824 138.126 15.8C138.686 14.76 139.462 13.96 140.454 13.4C141.462 12.84 142.614 12.56 143.91 12.56C145.158 12.56 146.27 12.832 147.246 13.376C148.222 13.92 148.982 14.688 149.526 15.68C150.07 16.656 150.342 17.784 150.342 19.064ZM147.486 18.2C147.47 17.192 147.11 16.384 146.406 15.776C145.702 15.168 144.83 14.864 143.79 14.864C142.846 14.864 142.038 15.168 141.366 15.776C140.694 16.368 140.294 17.176 140.166 18.2H147.486ZM157.834 26.216C156.794 26.216 155.858 26.032 155.026 25.664C154.21 25.28 153.562 24.768 153.082 24.128C152.602 23.472 152.346 22.744 152.314 21.944H155.146C155.194 22.504 155.458 22.976 155.938 23.36C156.434 23.728 157.05 23.912 157.786 23.912C158.554 23.912 159.146 23.768 159.562 23.48C159.994 23.176 160.21 22.792 160.21 22.328C160.21 21.832 159.97 21.464 159.49 21.224C159.026 20.984 158.282 20.72 157.258 20.432C156.266 20.16 155.458 19.896 154.834 19.64C154.21 19.384 153.666 18.992 153.202 18.464C152.754 17.936 152.53 17.24 152.53 16.376C152.53 15.672 152.738 15.032 153.154 14.456C153.57 13.864 154.162 13.4 154.93 13.064C155.714 12.728 156.61 12.56 157.618 12.56C159.122 12.56 160.33 12.944 161.242 13.712C162.17 14.464 162.666 15.496 162.73 16.808H159.994C159.946 16.216 159.706 15.744 159.274 15.392C158.842 15.04 158.258 14.864 157.522 14.864C156.802 14.864 156.25 15 155.866 15.272C155.482 15.544 155.29 15.904 155.29 16.352C155.29 16.704 155.418 17 155.674 17.24C155.93 17.48 156.242 17.672 156.61 17.816C156.978 17.944 157.522 18.112 158.242 18.32C159.202 18.576 159.986 18.84 160.594 19.112C161.218 19.368 161.754 19.752 162.202 20.264C162.65 20.776 162.882 21.456 162.898 22.304C162.898 23.056 162.69 23.728 162.274 24.32C161.858 24.912 161.266 25.376 160.498 25.712C159.746 26.048 158.858 26.216 157.834 26.216ZM169.047 15.008V22.328C169.047 22.824 169.159 23.184 169.383 23.408C169.623 23.616 170.023 23.72 170.583 23.72H172.263V26H170.103C168.871 26 167.927 25.712 167.271 25.136C166.615 24.56 166.287 23.624 166.287 22.328V15.008H164.727V12.776H166.287V9.488H169.047V12.776H172.263V15.008H169.047ZM197.027 12.56C198.067 12.56 198.995 12.776 199.811 13.208C200.643 13.64 201.291 14.28 201.755 15.128C202.235 15.976 202.475 17 202.475 18.2V26H199.763V18.608C199.763 17.424 199.467 16.52 198.875 15.896C198.283 15.256 197.475 14.936 196.451 14.936C195.427 14.936 194.611 15.256 194.003 15.896C193.411 16.52 193.115 17.424 193.115 18.608V26H190.403V18.608C190.403 17.424 190.107 16.52 189.515 15.896C188.923 15.256 188.115 14.936 187.091 14.936C186.067 14.936 185.251 15.256 184.643 15.896C184.051 16.52 183.755 17.424 183.755 18.608V26H181.019V12.776H183.755V14.288C184.203 13.744 184.771 13.32 185.459 13.016C186.147 12.712 186.883 12.56 187.667 12.56C188.723 12.56 189.667 12.784 190.499 13.232C191.331 13.68 191.971 14.328 192.419 15.176C192.819 14.376 193.443 13.744 194.291 13.28C195.139 12.8 196.051 12.56 197.027 12.56ZM211.692 26.216C210.444 26.216 209.316 25.936 208.308 25.376C207.3 24.8 206.508 24 205.932 22.976C205.356 21.936 205.068 20.736 205.068 19.376C205.068 18.032 205.364 16.84 205.956 15.8C206.548 14.76 207.356 13.96 208.38 13.4C209.404 12.84 210.548 12.56 211.812 12.56C213.076 12.56 214.22 12.84 215.244 13.4C216.268 13.96 217.076 14.76 217.668 15.8C218.26 16.84 218.556 18.032 218.556 19.376C218.556 20.72 218.252 21.912 217.644 22.952C217.036 23.992 216.204 24.8 215.148 25.376C214.108 25.936 212.956 26.216 211.692 26.216ZM211.692 23.84C212.396 23.84 213.052 23.672 213.66 23.336C214.284 23 214.788 22.496 215.172 21.824C215.556 21.152 215.748 20.336 215.748 19.376C215.748 18.416 215.564 17.608 215.196 16.952C214.828 16.28 214.34 15.776 213.732 15.44C213.124 15.104 212.468 14.936 211.764 14.936C211.06 14.936 210.404 15.104 209.796 15.44C209.204 15.776 208.732 16.28 208.38 16.952C208.028 17.608 207.852 18.416 207.852 19.376C207.852 20.8 208.212 21.904 208.932 22.688C209.668 23.456 210.588 23.84 211.692 23.84ZM222.653 11.024C222.157 11.024 221.741 10.856 221.405 10.52C221.069 10.184 220.901 9.768 220.901 9.272C220.901 8.776 221.069 8.36 221.405 8.024C221.741 7.688 222.157 7.52 222.653 7.52C223.133 7.52 223.541 7.688 223.877 8.024C224.213 8.36 224.381 8.776 224.381 9.272C224.381 9.768 224.213 10.184 223.877 10.52C223.541 10.856 223.133 11.024 222.653 11.024ZM223.997 12.776V26H221.261V12.776H223.997ZM237.255 9.32L236.943 20.96H234.663L234.351 9.32H237.255ZM235.887 26.168C235.391 26.168 234.975 26 234.639 25.664C234.303 25.328 234.135 24.912 234.135 24.416C234.135 23.92 234.303 23.504 234.639 23.168C234.975 22.832 235.391 22.664 235.887 22.664C236.367 22.664 236.775 22.832 237.111 23.168C237.447 23.504 237.615 23.92 237.615 24.416C237.615 24.912 237.447 25.328 237.111 25.664C236.775 26 236.367 26.168 235.887 26.168ZM244.966 9.32L244.654 20.96H242.374L242.062 9.32H244.966ZM243.598 26.168C243.102 26.168 242.686 26 242.35 25.664C242.014 25.328 241.846 24.912 241.846 24.416C241.846 23.92 242.014 23.504 242.35 23.168C242.686 22.832 243.102 22.664 243.598 22.664C244.078 22.664 244.486 22.832 244.822 23.168C245.158 23.504 245.326 23.92 245.326 24.416C245.326 24.912 245.158 25.328 244.822 25.664C244.486 26 244.078 26.168 243.598 26.168Z" fill="white"/>
<g clip-path="url(#clip0_275_124)">
<path d="M295 198.863C295 280.289 228.993 346.307 147.556 346.307C66.118 346.307 0.111328 280.289 0.111328 198.863C0.111328 117.438 66.118 51.4189 147.556 51.4189C228.993 51.4189 295 117.426 295 198.863Z" fill="#5CB030"/>
<path d="M193.716 300.543L195.744 399.367M98.9473 302.571L100.975 401.395" stroke="black" stroke-width="2.86" stroke-miterlimit="10"/>
<path d="M124.337 137.212C124.361 141.232 121.122 144.52 117.102 144.544C113.082 144.568 109.795 141.328 109.771 137.308C109.747 133.288 112.986 130.001 117.006 129.977C121.026 129.953 124.313 133.192 124.337 137.212Z" fill="black"/>
<path d="M180.433 136.84C180.457 140.86 177.217 144.147 173.198 144.171C169.178 144.195 165.89 140.956 165.866 136.936C165.842 132.916 169.082 129.629 173.102 129.605C177.121 129.581 180.409 132.82 180.433 136.84Z" fill="black"/>
<path d="M183.829 167.834C166.046 167.834 151.587 153.375 151.587 135.592C151.587 117.81 166.058 103.351 183.829 103.351C201.599 103.351 216.07 117.81 216.07 135.592C216.07 153.375 201.611 167.834 183.829 167.834ZM109.399 168.913C91.6162 168.913 77.1573 154.443 77.1573 136.672C77.1573 118.901 91.6281 104.431 109.399 104.431C127.169 104.431 141.64 118.889 141.64 136.672C141.64 154.455 127.169 168.913 109.399 168.913ZM232.785 103.423L230.877 101.959L215.602 121.817C210.263 109.554 198.036 100.951 183.829 100.951C166.706 100.951 152.451 113.442 149.68 129.797L143.476 130.493C140.548 114.33 126.389 102.031 109.399 102.031C92.4081 102.031 78.0452 114.498 75.2615 130.829L39.5163 108.15L38.2324 110.178L74.9135 133.456C74.8175 134.512 74.7575 135.592 74.7575 136.672C74.7575 155.775 90.2963 171.313 109.399 171.313C128.501 171.313 144.04 155.775 144.04 136.672C144.04 135.388 143.968 134.116 143.824 132.868L149.356 132.244C149.248 133.348 149.188 134.464 149.188 135.592C149.188 154.695 164.726 170.233 183.829 170.233C202.931 170.233 218.47 154.695 218.47 135.592C218.47 131.692 217.81 127.937 216.61 124.433L232.773 103.423H232.785Z" fill="white"/>
<path d="M230.757 283.336L229.629 281.249C270.486 259.254 260.406 185.04 260.298 184.296L262.65 183.96C262.674 184.152 265.338 203.243 262.794 224.853C259.399 253.663 248.311 273.881 230.757 283.336Z" fill="black"/>
<path d="M229.545 295.443L227.182 295.191C227.674 290.656 228.334 286.612 229.041 282.521L231.381 282.916C230.685 286.96 230.025 290.968 229.545 295.443Z" fill="black"/>
<path d="M220.774 292.372L219.178 290.62C220.714 289.228 222.237 287.8 223.773 286.384C225.633 284.656 227.505 282.917 229.413 281.201L231.009 282.965C229.113 284.68 227.253 286.408 225.393 288.136C223.857 289.564 222.321 290.992 220.786 292.384" fill="black"/>
<path d="M215.962 283.876L215.698 281.513C218.038 281.249 220.774 281.105 223.414 280.961C225.993 280.829 228.657 280.673 230.877 280.433L231.141 282.796C228.849 283.048 226.149 283.192 223.546 283.336C220.942 283.48 218.242 283.624 215.962 283.876Z" fill="black"/>
<path d="M68.4103 283.54L69.5383 281.453C28.6815 259.458 38.7607 185.244 38.8687 184.5L36.5169 184.164C36.4929 184.356 33.8291 203.447 36.3729 225.057C39.7686 253.867 50.8558 274.085 68.4103 283.54Z" fill="black"/>
<path d="M69.622 295.647L71.9858 295.395C71.4938 290.86 70.8339 286.816 70.1259 282.724L67.7861 283.12C68.4821 287.164 69.142 291.172 69.622 295.647Z" fill="black"/>
<path d="M78.4051 292.564L80.001 290.812C78.4651 289.42 76.9412 287.992 75.4053 286.576C73.5455 284.848 71.6736 283.108 69.7658 281.393L68.1699 283.156C70.0658 284.872 71.9256 286.6 73.7855 288.328C75.3213 289.756 76.8572 291.184 78.3931 292.576" fill="black"/>
<path d="M83.2052 284.08L83.4691 281.716C81.1293 281.452 78.3935 281.308 75.7538 281.164C73.174 281.032 70.5102 280.876 68.2903 280.636L68.0264 283C70.3182 283.252 73.018 283.396 75.6218 283.54C78.2256 283.684 80.9253 283.828 83.2052 284.08Z" fill="black"/>
<path d="M141.292 163.082C144.88 166.994 149.199 167.258 153.891 165.602" stroke="#1D1D1B" stroke-width="2.86" stroke-linecap="round" stroke-linejoin="round"/>
</g>
<path d="M258.1 16.0999C258.1 16.0999 312.42 21.8741 269.186 69.4962" stroke="white" stroke-width="2" stroke-miterlimit="10" stroke-linecap="round"/>
<path d="M268.977 62.2312L268.998 69.4963L277.082 68.2994" stroke="white" stroke-width="2" stroke-miterlimit="10" stroke-linecap="round"/>
<defs>
<clipPath id="clip0_275_124">
<rect width="294.888" height="350" fill="white" transform="translate(0.111328 51.4189)"/>
</clipPath>
</defs>
</svg>
