<?xml version="1.0" encoding="UTF-8"?>
<svg id="Layer_2" data-name="Layer 2" xmlns="http://www.w3.org/2000/svg" viewBox="0 0 257.47 291.69">
  <defs>
    <style>
      .cls-1 {
        fill: #fff;
      }

      .cls-2 {
        fill: none;
        stroke: #000;
        stroke-miterlimit: 10;
        stroke-width: 2.86px;
      }

      .cls-3 {
        fill: #5cb030;
      }

      .cls-4 {
        fill: #1d1d1b;
      }
    </style>
  </defs>
  <g id="Layer_4" data-name="Layer 4">
    <g>
      <g>
        <path class="cls-3" d="m257.47,122.88c0,67.86-55.01,122.88-122.88,122.88S11.71,190.74,11.71,122.88,66.72,0,134.59,0s122.88,55.01,122.88,122.88"/>
        <path class="cls-2" d="m173.06,207.62l1.69,82.36-1.69-82.36Zm-78.98,1.69l1.69,82.36-1.69-82.36Z"/>
      </g>
      <g>
        <path d="m125.28,61.74c.02,3.35-2.68,6.09-6.03,6.11-3.35.02-6.09-2.68-6.11-6.03-.02-3.35,2.68-6.09,6.03-6.11,3.35-.02,6.09,2.68,6.11,6.03"/>
        <path d="m172.03,61.43c.02,3.35-2.68,6.09-6.03,6.11-3.35.02-6.09-2.68-6.11-6.03-.02-3.35,2.68-6.09,6.03-6.11,3.35-.02,6.09,2.68,6.11,6.03"/>
      </g>
      <path class="cls-4" d="m142.99,87.37c-.35,0-.69-.12-.97-.38-.58-.53-.62-1.44-.09-2.02,3.09-3.37,7.14-4.21,12.04-2.48.75.26,1.14,1.08.88,1.83-.26.74-1.08,1.14-1.83.87-3.87-1.36-6.64-.84-8.97,1.71-.28.31-.67.46-1.06.46"/>
      <path class="cls-1" d="m174.86,87.27c-14.82,0-26.87-12.05-26.87-26.87s12.06-26.87,26.87-26.87,26.87,12.05,26.87,26.87-12.05,26.87-26.87,26.87m-62.03.9c-14.82,0-26.87-12.06-26.87-26.87s12.06-26.87,26.87-26.87,26.87,12.05,26.87,26.87-12.06,26.87-26.87,26.87m102.83-54.58l-1.59-1.22-12.73,16.55c-4.45-10.22-14.64-17.39-26.48-17.39-14.27,0-26.15,10.41-28.46,24.04l-5.17.58c-2.44-13.47-14.24-23.72-28.4-23.72s-26.13,10.39-28.45,24l-29.79-18.9-1.07,1.69,30.57,19.4c-.08.88-.13,1.78-.13,2.68,0,15.92,12.95,28.87,28.87,28.87s28.87-12.95,28.87-28.87c0-1.07-.06-2.13-.18-3.17l4.61-.52c-.09.92-.14,1.85-.14,2.79,0,15.92,12.95,28.87,28.87,28.87s28.87-12.95,28.87-28.87c0-3.25-.55-6.38-1.55-9.3l13.47-17.51Z"/>
      <g>
        <path d="m61.45,114.76c-.36-.1-36.12-10.85-59.26-39.77-2.04-2.55-2.66-5.24-1.85-8.01,3.13-10.69,27.7-20.17,46.1-26.4l5.33-9.96,1.75.93-5.7,10.65-.37.12c-10.38,3.51-41.97,14.19-45.2,25.21-.63,2.15-.14,4.18,1.49,6.22,22.73,28.42,57.92,39,58.27,39.11l-.56,1.9Z"/>
        <polygon points="58.48 45.55 44.2 41.61 57.68 35.62 58.48 37.43 50.06 41.17 59 43.64 58.48 45.55"/>
      </g>
      <g>
        <path d="m201.49,195.5l-.94-1.74c34.05-18.33,25.65-80.18,25.56-80.8l1.96-.28c.02.16,2.24,16.07.12,34.08-2.83,24.01-12.07,40.86-26.7,48.74"/>
        <path d="m200.48,205.59l-1.97-.21c.41-3.78.96-7.15,1.55-10.56l1.95.33c-.58,3.37-1.13,6.71-1.53,10.44"/>
        <path d="m193.17,203.02l-1.33-1.46c1.28-1.16,2.55-2.35,3.83-3.53,1.55-1.44,3.11-2.89,4.7-4.32l1.33,1.47c-1.58,1.43-3.13,2.87-4.68,4.31-1.28,1.19-2.56,2.38-3.84,3.54"/>
        <path d="m189.16,195.95l-.22-1.97c1.95-.22,4.23-.34,6.43-.46,2.15-.11,4.37-.24,6.22-.44l.22,1.97c-1.91.21-4.16.33-6.33.45-2.17.12-4.42.24-6.32.45"/>
      </g>
    </g>
  </g>
</svg>