<?xml version="1.0" encoding="UTF-8"?>
<svg id="Layer_2" data-name="Layer 2" xmlns="http://www.w3.org/2000/svg" viewBox="0 0 245.76 291.69">
  <defs>
    <style>
      .cls-1 {
        fill: #fff;
      }

      .cls-2 {
        fill: #5cb030;
      }

      .cls-3 {
        stroke: #000;
        stroke-miterlimit: 10;
      }

      .cls-3, .cls-4 {
        fill: none;
        stroke-width: 2.86px;
      }

      .cls-4 {
        stroke: #1d1d1b;
        stroke-linecap: round;
        stroke-linejoin: round;
      }
    </style>
  </defs>
  <g id="Layer_3" data-name="Layer 3">
    <g>
      <g>
        <path class="cls-2" d="m245.76,122.88c0,67.86-55.01,122.88-122.88,122.88S0,190.74,0,122.88,55.01,0,122.88,0s122.88,55.01,122.88,122.88"/>
        <path class="cls-3" d="m161.35,207.62l1.69,82.36-1.69-82.36Zm-78.98,1.69l1.69,82.36-1.69-82.36Z"/>
      </g>
      <g>
        <path d="m103.53,71.5c.02,3.35-2.68,6.09-6.03,6.11-3.35.02-6.09-2.68-6.11-6.03-.02-3.35,2.68-6.09,6.03-6.11,3.35-.02,6.09,2.68,6.11,6.03"/>
        <path d="m150.28,71.19c.02,3.35-2.68,6.09-6.03,6.11-3.35.02-6.09-2.68-6.11-6.03-.02-3.35,2.68-6.09,6.03-6.11,3.35-.02,6.09,2.68,6.11,6.03"/>
      </g>
      <path class="cls-1" d="m153.11,97.02c-14.82,0-26.87-12.05-26.87-26.87s12.06-26.87,26.87-26.87,26.87,12.05,26.87,26.87-12.05,26.87-26.87,26.87m-62.03.9c-14.82,0-26.87-12.06-26.87-26.87s12.06-26.87,26.87-26.87,26.87,12.05,26.87,26.87-12.06,26.87-26.87,26.87m102.83-54.58l-1.59-1.22-12.73,16.55c-4.45-10.22-14.64-17.39-26.48-17.39-14.27,0-26.15,10.41-28.46,24.04l-5.17.58c-2.44-13.47-14.24-23.72-28.4-23.72s-26.13,10.39-28.45,24l-29.79-18.9-1.07,1.69,30.57,19.4c-.08.88-.13,1.78-.13,2.68,0,15.92,12.95,28.87,28.87,28.87s28.87-12.95,28.87-28.87c0-1.07-.06-2.13-.18-3.17l4.61-.52c-.09.92-.14,1.85-.14,2.79,0,15.92,12.95,28.87,28.87,28.87s28.87-12.95,28.87-28.87c0-3.25-.55-6.38-1.55-9.3l13.47-17.51Z"/>
      <g>
        <path d="m192.22,193.28l-.94-1.74c34.05-18.33,25.65-80.18,25.56-80.8l1.96-.28c.02.16,2.24,16.07.12,34.08-2.83,24.01-12.07,40.86-26.7,48.74"/>
        <path d="m191.21,203.37l-1.97-.21c.41-3.78.96-7.15,1.55-10.56l1.95.33c-.58,3.37-1.13,6.71-1.53,10.44"/>
        <path d="m183.9,200.81l-1.33-1.46c1.28-1.16,2.55-2.35,3.83-3.53,1.55-1.44,3.11-2.89,4.7-4.32l1.33,1.47c-1.58,1.43-3.13,2.87-4.68,4.31-1.28,1.19-2.56,2.38-3.84,3.54"/>
        <path d="m179.89,193.73l-.22-1.97c1.95-.22,4.23-.34,6.43-.46,2.15-.11,4.37-.24,6.22-.44l.22,1.97c-1.91.21-4.16.33-6.33.45-2.17.12-4.42.24-6.32.45"/>
      </g>
      <g>
        <path d="m56.92,193.45l.94-1.74c-34.05-18.33-25.65-80.18-25.56-80.8l-1.96-.28c-.02.16-2.24,16.07-.12,34.08,2.83,24.01,12.07,40.86,26.7,48.74"/>
        <path d="m57.93,203.54l1.97-.21c-.41-3.78-.96-7.15-1.55-10.56l-1.95.33c.58,3.37,1.13,6.71,1.53,10.44"/>
        <path d="m65.25,200.97l1.33-1.46c-1.28-1.16-2.55-2.35-3.83-3.53-1.55-1.44-3.11-2.89-4.7-4.32l-1.33,1.47c1.58,1.43,3.13,2.87,4.68,4.31,1.28,1.19,2.56,2.38,3.84,3.54"/>
        <path d="m69.25,193.9l.22-1.97c-1.95-.22-4.23-.34-6.43-.46-2.15-.11-4.37-.24-6.22-.44l-.22,1.97c1.91.21,4.16.33,6.33.45,2.17.12,4.42.24,6.32.45"/>
      </g>
      <path class="cls-4" d="m117.66,93.06c2.99,3.26,6.59,3.48,10.5,2.1"/>
    </g>
  </g>
</svg>