<?xml version="1.0" encoding="UTF-8"?>
<svg id="Calque_1" data-name="Calque 1" xmlns="http://www.w3.org/2000/svg" viewBox="0 0 2992.75 873.82">
  <defs>
    <style>
      .cls-1 {
        fill: #fff;
      }
    </style>
  </defs>
  <g>
    <path class="cls-1" d="m1150.54,629.92c-34.84,0-66.18-7.86-94.01-23.59-27.84-15.72-49.85-37.39-66.06-64.97-16.22-27.58-24.32-58.55-24.32-92.92s7.98-65.21,23.96-92.56c15.97-27.34,37.62-49,64.97-64.97,27.34-15.97,57.71-23.96,91.11-23.96s61.09,7.51,86.02,22.5c24.92,15.01,44.52,35.57,58.8,61.7,14.27,26.13,21.42,55.9,21.42,89.29,0,5.81-.36,11.74-1.09,17.79-.73,6.06-1.81,12.7-3.27,19.96h-286.02v-65.33h244.64l-29.76,26.13c-.98-21.29-5.08-39.2-12.34-53.72-7.26-14.52-17.55-25.65-30.85-33.39-13.32-7.74-29.65-11.61-49-11.61-20.33,0-38,4.36-52.99,13.07-15.01,8.71-26.62,20.94-34.84,36.66-8.24,15.73-12.34,34.48-12.34,56.26s4.36,40.9,13.07,57.35c8.71,16.46,21.05,29.16,37.02,38.11,15.97,8.96,34.36,13.43,55.17,13.43,17.9,0,34.48-3.14,49.73-9.44,15.25-6.28,28.19-15.48,38.84-27.59l50.82,51.54c-16.95,19.85-37.51,34.84-61.7,45.01-24.21,10.16-49.85,15.25-76.95,15.25Z"/>
    <path class="cls-1" d="m1522.21,629.92c-31.46,0-59.89-7.99-85.3-23.96s-45.5-37.62-60.25-64.97c-14.77-27.34-22.14-57.95-22.14-91.83s7.37-65.21,22.14-92.56c14.76-27.34,34.85-49.11,60.25-65.33,25.41-16.21,53.83-24.32,85.3-24.32,26.61,0,50.2,5.69,70.78,17.06,20.56,11.38,36.9,26.98,49,46.82,12.09,19.85,18.15,42.35,18.15,67.51v100.18c0,25.17-5.93,47.67-17.79,67.51-11.86,19.85-28.2,35.46-49,46.82-20.81,11.37-44.53,17.06-71.14,17.06Zm13.07-75.5c19.84,0,37.14-4.47,51.9-13.43,14.76-8.95,26.25-21.42,34.48-37.39,8.22-15.97,12.34-34.36,12.34-55.17s-4.12-39.2-12.34-55.17c-8.24-15.97-19.73-28.42-34.48-37.39-14.77-8.95-32.07-13.43-51.9-13.43s-36.42,4.48-51.18,13.43c-14.77,8.96-26.38,21.42-34.84,37.39-8.47,15.97-12.7,34.37-12.7,55.17s4.23,39.2,12.7,55.17c8.46,15.97,20.08,28.44,34.84,37.39,14.76,8.96,31.82,13.43,51.18,13.43Zm173.5,68.24h-79.85v-93.65l13.79-84.93-13.79-84.21V99.99h79.85v522.67Z"/>
    <path class="cls-1" d="m1938.89,615.4c-30.98,0-58.93-7.62-83.85-22.87-24.93-15.25-44.53-36.17-58.8-62.79-14.28-26.61-21.42-56.37-21.42-89.29s7.13-62.43,21.42-88.56c14.27-26.13,33.87-46.82,58.8-62.07,24.92-15.24,52.87-22.87,83.85-22.87,27.58,0,51.78,5.57,72.59,16.7,20.8,11.14,37.02,26.5,48.64,46.1s17.42,42.47,17.42,68.6v85.66c0,25.66-5.93,48.4-17.79,68.24-11.87,19.85-28.2,35.33-49,46.46-20.81,11.14-44.77,16.7-71.87,16.7Zm3.63,159.71c-36.79,0-68.96-6.66-96.55-19.96-27.59-13.32-49.85-32.07-66.79-56.26l52.27-52.27c14.03,17.42,30,30.49,47.91,39.2,17.9,8.71,39.44,13.07,64.61,13.07,31.46,0,56.38-8.11,74.77-24.32,18.39-16.22,27.59-38.36,27.59-66.42v-85.66l13.79-76.95-13.79-77.67v-93.65h79.85v333.93c0,33.39-7.75,62.54-23.23,87.47-15.49,24.92-37.02,44.4-64.61,58.44-27.59,14.03-59.53,21.05-95.82,21.05Zm12.34-235.2c19.35,0,36.3-4.11,50.81-12.34,14.52-8.22,25.77-19.71,33.76-34.48,7.99-14.76,11.98-32.05,11.98-51.9s-3.99-37.14-11.98-51.9c-7.98-14.76-19.24-26.25-33.76-34.48-14.52-8.22-31.46-12.34-50.81-12.34s-36.42,4.12-51.18,12.34c-14.77,8.23-26.26,19.72-34.48,34.48-8.24,14.77-12.34,32.07-12.34,51.9s4.11,36.55,12.34,51.54c8.22,15.01,19.71,26.62,34.48,34.84,14.76,8.23,31.82,12.34,51.18,12.34Z"/>
    <path class="cls-1" d="m2360.65,629.92c-31.46,0-59.89-7.99-85.3-23.96s-45.5-37.62-60.25-64.97c-14.77-27.34-22.14-57.95-22.14-91.83s7.37-65.21,22.14-92.56c14.76-27.34,34.84-49.11,60.25-65.33,25.41-16.21,53.83-24.32,85.3-24.32,26.61,0,50.2,5.69,70.78,17.06,20.56,11.38,36.9,26.98,49,46.82,12.09,19.85,18.15,42.35,18.15,67.51v100.18c0,25.17-5.93,47.67-17.79,67.51-11.87,19.85-28.2,35.46-49,46.82-20.81,11.37-44.53,17.06-71.14,17.06Zm13.07-75.5c29.51,0,53.36-9.91,71.5-29.76,18.15-19.84,27.22-45.25,27.22-76.22,0-20.8-4.12-39.2-12.34-55.17-8.23-15.97-19.72-28.42-34.48-37.39-14.77-8.95-32.06-13.43-51.9-13.43s-36.42,4.48-51.18,13.43c-14.77,8.96-26.38,21.42-34.84,37.39-8.47,15.97-12.71,34.37-12.71,55.17s4.23,39.2,12.71,55.17c8.46,15.97,20.08,28.44,34.84,37.39,14.76,8.96,31.82,13.43,51.18,13.43Zm93.64,68.24v-93.65l13.79-84.93-13.79-84.21v-85.66h79.85v348.45h-79.85Z"/>
    <path class="cls-1" d="m2635.77,622.66v-348.45h79.85v348.45h-79.85Zm79.85-193.82l-27.59-13.79c0-44.03,9.8-79.73,29.4-107.08,19.6-27.34,49.24-41.02,88.93-41.02,17.42,0,33.14,3.15,47.19,9.44,14.03,6.3,27.1,16.46,39.2,30.49l-52.27,53.72c-6.29-6.77-13.32-11.61-21.05-14.52-7.75-2.9-16.7-4.36-26.86-4.36-22.27,0-40.65,7.02-55.17,21.05-14.52,14.04-21.78,36.06-21.78,66.06Z"/>
  </g>
  <g>
    <path class="cls-1" d="m286.49,191.34c24.45,0,47.44,9.52,64.73,26.81l130.58,130.58c-34.56.05-67.04,13.53-91.48,37.98l-39.1,39.1c-17.29,17.29-40.28,26.81-64.73,26.81s-47.44-9.52-64.73-26.81l-39.1-39.1c-35.69-35.69-35.69-93.76,0-129.45l39.1-39.1c17.29-17.29,40.28-26.81,64.73-26.81m0-8c-26.59,0-51.58,10.35-70.38,29.15l-39.1,39.1c-38.81,38.81-38.81,101.96,0,140.77l39.1,39.1c18.8,18.8,43.8,29.15,70.38,29.15s51.58-10.35,70.38-29.15l39.1-39.1c22.98-22.98,53.53-35.63,86.02-35.63,7.07,0,14.05.6,20.89,1.77l-146.01-146.01c-18.8-18.8-43.8-29.15-70.38-29.15h0Z"/>
    <path class="cls-1" d="m677.51,460.62c-26.59,0-51.58-10.35-70.38-29.15l-109.48-109.49,109.48-109.49c18.8-18.8,43.8-29.15,70.38-29.15s51.59,10.35,70.39,29.15l39.1,39.1c18.8,18.8,29.15,43.8,29.15,70.38s-10.36,51.58-29.15,70.38l-39.1,39.1c-18.8,18.8-43.8,29.15-70.39,29.15Z"/>
    <path class="cls-1" d="m482,690.48c-4.43,0-8.6-1.73-11.73-4.86l-97.76-97.76c-18.8-18.8-29.15-43.8-29.15-70.38s10.36-51.58,29.15-70.38l39.1-39.1c18.8-18.8,43.8-29.15,70.38-29.15s51.58,10.35,70.38,29.15l39.1,39.1c22.98,22.98,53.53,35.63,86.02,35.63,7.07,0,14.05-.6,20.89-1.77l-204.66,204.67c-3.13,3.13-7.3,4.86-11.73,4.86Z"/>
  </g>
</svg>