<svg width="23" height="32" viewBox="0 0 23 32" fill="none" xmlns="http://www.w3.org/2000/svg">
<path d="M12.8329 21.2439C15.5242 20.9048 17.9852 19.5528 19.7148 17.4632C21.4444 15.3735 22.3126 12.7032 22.1428 9.99596C21.9729 7.28868 20.7777 4.7479 18.8004 2.89083C16.8232 1.03375 14.2126 0 11.5 0C8.78735 0 6.1767 1.03375 4.19946 2.89083C2.22221 4.7479 1.027 7.28868 0.857127 9.99596C0.687256 12.7032 1.5555 15.3735 3.2851 17.4632C5.0147 19.5528 7.47565 20.9048 10.167 21.2439V24.0022H3.50214V26.6681H10.167V32H12.8329V26.6681H19.4978V24.0022H12.8329V21.2439ZM3.50214 10.6725C3.50214 9.09067 3.9712 7.54438 4.85001 6.22914C5.72882 4.91391 6.97791 3.88881 8.43932 3.28347C9.90073 2.67814 11.5088 2.51975 13.0602 2.82835C14.6117 3.13695 16.0367 3.89867 17.1553 5.01718C18.2738 6.1357 19.0355 7.56077 19.3441 9.11219C19.6527 10.6636 19.4943 12.2717 18.889 13.7331C18.2836 15.1945 17.2585 16.4436 15.9433 17.3224C14.6281 18.2012 13.0818 18.6703 11.5 18.6703C9.37951 18.668 7.34659 17.8246 5.84721 16.3252C4.34784 14.8259 3.50446 12.7929 3.50214 10.6725Z" fill="url(#paint0_linear_168_7)"/>
<defs>
<linearGradient id="paint0_linear_168_7" x1="1.5471" y1="0.364137" x2="22.8746" y2="31.6445" gradientUnits="userSpaceOnUse">
<stop stop-color="#DC00B9"/>
<stop offset="1" stop-color="#1644BA"/>
</linearGradient>
</defs>
</svg>
