<svg width="233" height="251" viewBox="0 0 233 251" fill="none" xmlns="http://www.w3.org/2000/svg">
	<g clip-path="url(#clip0_51_54)">
		<path
			d="M233 105.736C233 163.897 185.905 211.054 127.8 211.054C69.6959 211.054 22.6011 163.897 22.6011 105.736C22.6011 47.5752 69.7045 0.418945 127.8 0.418945C185.896 0.418945 233 47.5666 233 105.736Z"
			fill="#5CB030"
		/>
		<path
			d="M160.735 178.365L162.182 248.953M93.1191 179.813L94.566 250.402"
			stroke="black"
			stroke-width="2.86"
			stroke-miterlimit="10"
		/>
		<path
			d="M111.235 61.6999C111.252 64.5711 108.94 66.9195 106.072 66.9366C103.204 66.9537 100.859 64.6396 100.841 61.7684C100.824 58.8972 103.136 56.5489 106.004 56.5317C108.872 56.5146 111.217 58.8287 111.235 61.6999Z"
			fill="black"
		/>
		<path
			d="M151.258 61.4341C151.275 64.3053 148.964 66.6537 146.096 66.6708C143.228 66.688 140.882 64.3739 140.865 61.5027C140.848 58.6315 143.159 56.2831 146.027 56.266C148.895 56.2488 151.241 58.5629 151.258 61.4341Z"
			fill="black"
		/>
		<path
			d="M118.871 74.4788C118.871 74.4788 129.555 77.05 136.498 72.7646C136.498 72.7646 139.555 83.4609 131.516 84.6351C123.477 85.8093 118.982 78.7727 118.871 74.4788Z"
			stroke="black"
			stroke-width="2"
			stroke-miterlimit="10"
		/>
		<path
			d="M153.681 83.5723C140.993 83.5723 130.677 73.2445 130.677 60.5427C130.677 47.8408 141.002 37.5131 153.681 37.5131C166.36 37.5131 176.684 47.8408 176.684 60.5427C176.684 73.2445 166.368 83.5723 153.681 83.5723ZM100.576 84.3436C87.8883 84.3436 77.5721 74.0073 77.5721 61.3141C77.5721 48.6208 87.8969 38.2845 100.576 38.2845C113.255 38.2845 123.58 48.6122 123.58 61.3141C123.58 74.0159 113.255 84.3436 100.576 84.3436ZM188.61 37.5645L187.249 36.5189L176.351 50.7035C172.541 41.9442 163.817 35.799 153.681 35.799C141.464 35.799 131.293 44.7211 129.316 56.403L124.89 56.9001C122.801 45.3553 112.699 36.5703 100.576 36.5703C88.4534 36.5703 78.2057 45.4753 76.2195 57.1401L50.7158 40.9414L49.7998 42.3899L75.9712 59.0171C75.9027 59.7713 75.8599 60.5427 75.8599 61.3141C75.8599 74.9587 86.9466 86.0578 100.576 86.0578C114.205 86.0578 125.292 74.9587 125.292 61.3141C125.292 60.397 125.241 59.4885 125.138 58.5971L129.085 58.1514C129.007 58.94 128.965 59.737 128.965 60.5427C128.965 74.1873 140.051 85.2864 153.681 85.2864C167.31 85.2864 178.397 74.1873 178.397 60.5427C178.397 57.7572 177.926 55.0746 177.07 52.5719L188.602 37.5645H188.61Z"
			fill="white"
		/>
		<path
			d="M187.172 166.074L186.367 164.583C215.518 148.873 208.327 95.8627 208.249 95.3313L209.927 95.0913C209.945 95.2284 211.845 108.864 210.03 124.3C207.607 144.879 199.697 159.32 187.172 166.074Z"
			fill="black"
		/>
		<path
			d="M186.299 174.722L184.612 174.542C184.963 171.302 185.434 168.414 185.939 165.491L187.609 165.774C187.112 168.663 186.641 171.525 186.299 174.722Z"
			fill="black"
		/>
		<path
			d="M180.04 172.528L178.902 171.277C179.998 170.282 181.085 169.262 182.181 168.251C183.508 167.017 184.843 165.774 186.205 164.549L187.343 165.808C185.99 167.034 184.663 168.268 183.337 169.502C182.241 170.522 181.145 171.542 180.049 172.537"
			fill="black"
		/>
		<path
			d="M176.616 166.46L176.428 164.771C178.097 164.583 180.049 164.48 181.933 164.377C183.773 164.283 185.674 164.172 187.258 164L187.446 165.689C185.811 165.869 183.884 165.971 182.027 166.074C180.169 166.177 178.243 166.28 176.616 166.46Z"
			fill="black"
		/>
		<path
			d="M13.9117 22.1715C11.4376 25.6083 8.14152 29.6966 6.78886 31.5821M7.67922 29.808C7.67922 26.4654 7.28541 23.4399 7.26829 20.1573M1.22412 22.78C3.33872 25.1541 5.01671 28.0596 6.9344 30.4937M44.3551 93.6258C44.3551 93.6258 -0.856236 63.1739 7.25972 29.988"
			stroke="black"
			stroke-width="2.86"
			stroke-linecap="round"
			stroke-linejoin="round"
		/>
	</g>
	<defs>
		<clipPath id="clip0_51_54">
			<rect width="233" height="250" fill="white" transform="translate(0 0.418945)" />
		</clipPath>
	</defs>
</svg>
