<svg width="211" height="251" viewBox="0 0 211 251" fill="none" xmlns="http://www.w3.org/2000/svg">
<g clip-path="url(#clip0_131_614)">
<path d="M0.365433 105.736C0.365433 163.897 47.5131 211.054 105.683 211.054C163.852 211.054 211 163.897 211 105.736C211 47.5752 163.852 0.418945 105.683 0.418945C47.5131 0.418945 0.365433 47.5666 0.365433 105.736Z" fill="#5CB030"/>
<path d="M72.7106 178.365L71.2622 248.953M140.402 179.813L138.954 250.402" stroke="black" stroke-width="2.86" stroke-miterlimit="10"/>
<path d="M113.662 53.3348C113.645 56.206 115.959 58.5543 118.831 58.5715C121.702 58.5886 124.05 56.2745 124.067 53.4033C124.084 50.5321 121.77 48.1837 118.899 48.1666C116.028 48.1495 113.68 50.4636 113.662 53.3348Z" fill="black"/>
<path d="M73.594 53.0691C73.5769 55.9403 75.891 58.2887 78.7622 58.3059C81.6334 58.323 83.9818 56.0089 83.9989 53.1377C84.0161 50.2665 81.702 47.9181 78.8308 47.901C75.9596 47.8838 73.6112 50.1979 73.594 53.0691Z" fill="black"/>
<path d="M71.1686 75.2157C83.8705 75.2157 94.1982 64.888 94.1982 52.1861C94.1982 39.4843 83.8619 29.1565 71.1686 29.1565C58.4754 29.1565 48.139 39.4843 48.139 52.1861C48.139 64.888 58.4668 75.2157 71.1686 75.2157ZM124.333 75.9871C137.035 75.9871 147.363 65.6508 147.363 52.9575C147.363 40.2642 137.026 29.9279 124.333 29.9279C111.64 29.9279 101.303 40.2556 101.303 52.9575C101.303 65.6593 111.64 75.9871 124.333 75.9871ZM36.2 29.208L37.5627 28.1623L48.4733 42.3469C52.2873 33.5876 61.0209 27.4424 71.1686 27.4424C83.3991 27.4424 93.5811 36.3645 95.561 48.0464L99.992 48.5436C102.083 36.9988 112.197 28.2137 124.333 28.2137C136.469 28.2137 146.728 37.1188 148.717 48.7835L174.249 32.5848L175.166 34.0333L148.965 50.6605C149.034 51.4147 149.077 52.1861 149.077 52.9575C149.077 66.6021 137.978 77.7012 124.333 77.7012C110.688 77.7012 99.5892 66.6021 99.5892 52.9575C99.5892 52.0404 99.6406 51.1319 99.7435 50.2406L95.7924 49.7949C95.8695 50.5834 95.9124 51.3805 95.9124 52.1861C95.9124 65.8307 84.8132 76.9298 71.1686 76.9298C57.524 76.9298 46.4249 65.8307 46.4249 52.1861C46.4249 49.4006 46.8963 46.718 47.7533 44.2153L36.2086 29.208H36.2Z" fill="white"/>
<path d="M91.3696 72.1818C91.0439 74.813 93.4952 77.2813 96.8549 77.7013C100.215 78.1213 103.197 76.33 103.532 73.6988C103.857 71.0676 101.406 68.5992 98.0462 68.1792C94.6865 67.7592 91.7039 69.5505 91.3696 72.1818Z" stroke="#1D1D1B" stroke-width="2.54" stroke-linecap="round" stroke-linejoin="round"/>
<path d="M127.47 157.538L137.558 155.558L128.456 150.664M174.489 96.9854C174.489 96.9854 196.704 149.533 137.549 155.558L130.967 163.126" stroke="black" stroke-width="2.86" stroke-linecap="round" stroke-linejoin="round"/>
<path d="M82.6447 125.455C79.3817 125.455 76.6511 127.734 75.9581 130.787L103.214 147.444L130.471 130.787C129.778 127.734 127.047 125.455 123.784 125.455H82.6447Z" fill="white"/>
<path d="M75.7881 159.054V134.701L95.6832 146.859L75.7881 159.054Z" fill="white"/>
<path d="M98.9682 148.867L76.4459 162.672C77.5454 164.991 79.9078 166.594 82.6447 166.594H104.092C103.524 164.986 103.214 163.255 103.214 161.452C103.214 156.71 105.354 152.468 108.719 149.638L107.461 148.867L103.214 151.462L98.9682 148.867Z" fill="white"/>
<path d="M130.641 151.754V134.701L110.746 146.859L111.904 147.569C113.94 146.58 116.226 146.024 118.642 146.024C123.488 146.024 127.813 148.259 130.641 151.754Z" fill="white"/>
<path d="M130.071 160.575C130.071 164.577 128.093 167.515 124.63 167.515C122.906 167.515 121.197 166.735 120.793 165.296H120.643C120.238 166.72 118.784 167.5 117.165 167.5C114.527 167.5 112.848 165.641 112.848 162.583V160.77C112.848 157.877 114.497 155.973 117.165 155.973C119.174 155.973 120.148 157.112 120.433 158.132H120.538V156.183H123.641V163.693C123.641 164.622 124.255 165.132 125.05 165.132C126.129 165.132 127.238 163.708 127.238 160.365V159.96C127.238 155.583 123.986 151.986 118.724 151.986H118.589C113.163 151.986 109.536 155.643 109.536 161.324V161.864C109.536 168.264 113.778 170.963 118.35 170.963H118.499C120.238 170.963 121.707 170.723 122.547 170.348V172.851C121.797 173.196 120.343 173.451 118.305 173.451H118.155C111.574 173.451 106.643 169.404 106.643 161.954V161.219C106.643 154.114 111.514 149.453 118.589 149.453H118.709C125.979 149.453 130.071 154.354 130.071 159.855V160.575ZM116.221 161.294V162.074C116.221 164.082 117 164.817 118.215 164.817C119.279 164.817 120.148 164.232 120.148 162.269V161.01C120.148 159.241 119.204 158.581 118.185 158.581C117 158.581 116.221 159.421 116.221 161.294Z" fill="white"/>
<path d="M77.5877 148.324L68.5713 153.372M68.5713 153.372L78.6934 155.181M68.5713 153.372L75.2822 160.829M68.5713 153.372C9.32177 148.35 30.6458 95.4341 30.6458 95.4341" stroke="black" stroke-width="2.86" stroke-linecap="round" stroke-linejoin="round"/>
</g>
<defs>
<clipPath id="clip0_131_614">
<rect width="210.635" height="250" fill="white" transform="matrix(-1 0 0 1 211 0.418945)"/>
</clipPath>
</defs>
</svg>
