<svg width="33" height="32" viewBox="0 0 33 32" fill="none" xmlns="http://www.w3.org/2000/svg">
<path d="M19.5339 0V2.66046H28.2946L18.0673 12.8879C15.9218 11.221 13.2217 10.4345 10.5166 10.6886C7.81161 10.9427 5.30513 12.2182 3.50758 14.2555C1.71003 16.2928 0.756588 18.9386 0.84139 21.6542C0.926191 24.3698 2.04286 26.951 3.96402 28.8722C5.88518 30.7933 8.46636 31.91 11.182 31.9948C13.8976 32.0796 16.5434 31.1261 18.5807 29.3286C20.618 27.5311 21.8935 25.0246 22.1476 22.3195C22.4017 19.6145 21.6152 16.9144 19.9482 14.7689L30.1757 4.54154V13.3023H32.8362V0H19.5339ZM11.5525 29.2651C9.9739 29.2651 8.43078 28.797 7.11825 27.92C5.80572 27.043 4.78272 25.7965 4.17863 24.3381C3.57454 22.8796 3.41648 21.2749 3.72444 19.7266C4.03241 18.1784 4.79256 16.7562 5.90878 15.64C7.025 14.5238 8.44714 13.7636 9.99538 13.4557C11.5436 13.1477 13.1484 13.3058 14.6068 13.9099C16.0652 14.514 17.3118 15.537 18.1888 16.8495C19.0658 18.162 19.5339 19.7051 19.5339 21.2837C19.5315 23.3998 18.6899 25.4285 17.1936 26.9248C15.6973 28.4211 13.6686 29.2628 11.5525 29.2651Z" fill="url(#paint0_linear_168_6)"/>
<defs>
<linearGradient id="paint0_linear_168_6" x1="1.26539" y1="15.9628" x2="32.4815" y2="15.9628" gradientUnits="userSpaceOnUse">
<stop stop-color="#1644BA"/>
<stop offset="1" stop-color="#DC00B9"/>
</linearGradient>
</defs>
</svg>
